<?xml version="1.0" encoding="UTF-8"?>
<!DOCTYPE svg PUBLIC "-//W3C//DTD SVG 1.1//EN" "http://www.w3.org/Graphics/SVG/1.1/DTD/svg11.dtd">
<!-- Creator: CorelDRAW 2020 (64-Bit) -->
<svg xmlns="http://www.w3.org/2000/svg" xml:space="preserve" width="11058px" height="3856px" version="1.1" style="shape-rendering:geometricPrecision; text-rendering:geometricPrecision; image-rendering:optimizeQuality; fill-rule:evenodd; clip-rule:evenodd"
viewBox="0 0 325.67 113.57"
 xmlns:xlink="http://www.w3.org/1999/xlink"
 xmlns:xodm="http://www.corel.com/coreldraw/odm/2003">
 <defs>
  <style type="text/css">
   <![CDATA[
    .str0 {stroke:#252525;stroke-width:0.07;stroke-miterlimit:22.9256}
    .fil1 {fill:#FEFEFE}
    .fil0 {fill:#252525}
    .fil2 {fill:#FEFEFE;fill-rule:nonzero}
   ]]>
  </style>
 </defs>
 <g id="Capa_x0020_1">
  <metadata id="CorelCorpID_0Corel-Layer"/>
  <g id="_1537675519120">
   <rect class="fil0" width="325.67" height="113.57"/>
   <path class="fil1" d="M36.44 58.77c0.86,0.75 1.73,1.5 2.59,2.25 0.52,0.45 0.38,0.38 1.07,0.38 0.97,0 1.94,0 2.91,0 0.85,0 0.51,0.09 1.24,-0.66 0.78,-0.79 1.56,-1.58 2.34,-2.37 0.28,-0.29 0.27,-0.19 0.03,-0.53 -0.98,-1.38 -2.14,-2.73 -1.75,-4.37 0.87,-3.73 9.34,-5.28 12.53,-11.47 0.96,-1.86 1.28,-3.77 0.87,-5.73 -0.98,-4.75 -5.64,-8.31 -9.88,-10.08 4.17,0.35 9.76,2.6 11.89,6.47 1.57,2.86 1.42,6.26 0.26,9.98 -2.32,5.38 -7.92,12.09 -15.56,19.64 -2.43,2.51 -4.85,5.02 -7.28,7.53 -3.11,3.03 -3.39,5.72 -0.27,7.98 1.67,1.22 2.38,0.87 4.4,0.87 10.03,0 20.07,0 30.1,0 2.36,0 4.46,-1.66 4.67,-4.08 0.22,-2.68 -1.5,-3.83 -4.36,-4.93 -6.18,-2.4 -2.12,-7.18 0.63,-11.92 2.01,-3.46 4.02,-6.92 6.03,-10.39 2.79,-6.1 4.85,-13.83 1.54,-20.16 -1.51,-2.89 -4.12,-5.5 -7.24,-7.96 2.44,0.49 4.7,1.63 6.66,3.75 5.42,5.82 5.49,12.52 2.66,19.67 4.55,-5.86 5.33,-13.28 1.38,-19.59 -5.22,-8.35 -12.98,-12.92 -23.51,-13.38 -6.86,-0.59 -3.02,4.09 -4.78,8.39 -2.19,5.34 -8.99,1.83 -9.38,-0.99 -0.1,-0.77 0.14,-1.54 0.87,-2.33 1.79,-1.1 3.41,-0.94 4.85,0.63 -0.68,-3.13 -3.26,-5.65 -6.55,-5.75 -4.61,-0.14 -7.12,1.94 -8.65,5.06 -0.45,0.93 -0.53,1.05 -0.53,2.05 0,13.81 0,27.62 0,41.44 0,0.39 -0.07,0.35 0.22,0.6zm6.68 17.88c-2.43,-2.4 -1.63,-3.62 -0.02,-6 1.14,-1.67 3.35,-4.42 7.37,-9.61 -1.85,1.91 -4.92,4.68 -7.32,7.47 -2.43,2.83 -6.99,6.09 -0.03,8.14zm-2.96 -45.49c0,2.43 0,5.31 0,7.74 1.95,-0.58 2.68,-1.48 2.63,-2.55 -0.09,-1.97 -2.18,-3.15 -2.63,-5.19zm3.69 -20.18c1.33,0 2.67,0 4.01,0 -0.72,1.96 -2.91,1.88 -4.01,0z"/>
   <path class="fil1" d="M44.67 81.52c26.51,0 31.56,0 32.53,0 0.22,0 0.22,0 0.22,0 1.69,2.4 5.28,1.06 6.96,3.55 0,3.87 0,7.75 0,11.62 7.29,1.81 15.65,1.55 26.24,-3.02 -17.62,13.02 -42.71,12.85 -62.14,4.1 -9.88,-4.45 -19.41,-9.33 -37.42,-4.47 8.32,-4.88 17.19,-6.82 26.56,-6.1 -0.13,-0.95 0.08,-1.75 0.68,-2.38 1.49,-1.57 3.95,-0.71 6.37,-3.3zm-2.98 6.35c18.39,5.34 11.17,9.21 34.89,10.12 -23.96,-4.41 -20.64,-10.12 -34.89,-10.12z"/>
   <path class="fil2 str0" d="M116.77 72.8c0.21,0.06 0.35,0.18 0.42,0.37 -0.42,0.4 -0.63,0.88 -0.63,1.43 0,0.29 0.1,0.54 0.28,0.74 -0.09,0.19 -0.22,0.34 -0.37,0.45 -0.16,0.11 -0.33,0.17 -0.53,0.17 -0.23,0 -0.4,-0.08 -0.52,-0.24 -0.12,-0.16 -0.17,-0.38 -0.17,-0.65 0,-0.42 0.13,-0.84 0.4,-1.23 0.27,-0.4 0.64,-0.75 1.12,-1.04zm1.97 0c0.2,0.06 0.34,0.18 0.42,0.37 -0.42,0.4 -0.63,0.88 -0.63,1.43 0,0.29 0.09,0.54 0.28,0.74 -0.1,0.19 -0.22,0.34 -0.38,0.45 -0.15,0.11 -0.33,0.17 -0.52,0.17 -0.23,0 -0.41,-0.08 -0.52,-0.24 -0.12,-0.16 -0.18,-0.38 -0.18,-0.65 0,-0.42 0.14,-0.84 0.41,-1.23 0.26,-0.4 0.64,-0.75 1.12,-1.04zm3.61 0.71c0.81,0 1.43,0.18 1.89,0.54 0.45,0.37 0.67,0.89 0.67,1.56 0,0.48 -0.11,0.91 -0.34,1.29 -0.24,0.37 -0.56,0.66 -0.98,0.87 -0.42,0.21 -0.9,0.32 -1.45,0.32 -0.35,0 -0.68,-0.05 -1,-0.15l-0.34 2 0.94 0.09c-0.01,0.28 -0.06,0.51 -0.15,0.7l-2.98 0c-0.01,-0.05 -0.01,-0.12 -0.01,-0.22 0,-0.11 0.01,-0.21 0.04,-0.3 0.05,-0.06 0.16,-0.12 0.31,-0.18 0.16,-0.06 0.32,-0.09 0.49,-0.11l0.95 -5.63 -0.76 -0.08c0,-0.15 0.02,-0.28 0.04,-0.39 0.02,-0.11 0.06,-0.21 0.12,-0.31l2.56 0zm-0.36 3.89c0.44,0 0.79,-0.17 1.06,-0.5 0.27,-0.33 0.41,-0.75 0.41,-1.27 0,-0.44 -0.11,-0.79 -0.33,-1.04 -0.21,-0.26 -0.53,-0.38 -0.94,-0.38l-0.41 0 -0.53 3.08c0.27,0.07 0.51,0.11 0.74,0.11zm6.93 -2.04c0.13,0 0.25,0.04 0.37,0.11 0.11,0.07 0.2,0.16 0.26,0.27 -0.01,0.21 -0.07,0.42 -0.17,0.64 -0.11,0.22 -0.25,0.41 -0.43,0.57 -0.12,-0.14 -0.27,-0.2 -0.44,-0.2 -0.21,0 -0.42,0.11 -0.62,0.33 -0.21,0.22 -0.39,0.5 -0.54,0.85 -0.15,0.35 -0.26,0.72 -0.33,1.1l-0.3 1.7c-0.22,0.03 -0.43,0.05 -0.65,0.05 -0.22,0 -0.44,-0.02 -0.66,-0.05l0.76 -4.47 -0.76 0.06c-0.02,-0.09 -0.04,-0.17 -0.04,-0.26 0,-0.08 0.02,-0.18 0.06,-0.32 0.21,-0.11 0.48,-0.2 0.81,-0.27 0.33,-0.08 0.66,-0.11 0.99,-0.09l0.29 0.18 -0.33 1.88c0.19,-0.6 0.44,-1.1 0.75,-1.49 0.32,-0.39 0.64,-0.59 0.98,-0.59zm4.79 1.28c0,0.63 -0.3,1.1 -0.89,1.42 -0.59,0.31 -1.26,0.52 -2.01,0.62 0.01,0.41 0.09,0.72 0.25,0.92 0.15,0.2 0.37,0.3 0.65,0.3 0.2,0 0.4,-0.06 0.6,-0.17 0.2,-0.12 0.38,-0.28 0.53,-0.48 0.19,0.09 0.33,0.21 0.41,0.37 -0.19,0.34 -0.46,0.63 -0.81,0.86 -0.35,0.23 -0.76,0.35 -1.22,0.35 -0.6,0 -1.05,-0.19 -1.37,-0.57 -0.31,-0.37 -0.46,-0.89 -0.46,-1.55 0,-0.62 0.13,-1.19 0.41,-1.71 0.28,-0.51 0.64,-0.92 1.08,-1.22 0.45,-0.3 0.91,-0.45 1.38,-0.45 0.45,0 0.81,0.13 1.06,0.37 0.26,0.25 0.39,0.56 0.39,0.94zm-2.88 1.52c0.54,-0.09 0.95,-0.27 1.22,-0.54 0.28,-0.27 0.42,-0.59 0.42,-0.97 0,-0.18 -0.04,-0.33 -0.12,-0.43 -0.07,-0.1 -0.18,-0.16 -0.32,-0.16 -0.18,0 -0.35,0.1 -0.52,0.3 -0.17,0.2 -0.32,0.46 -0.44,0.79 -0.12,0.32 -0.2,0.66 -0.24,1.01zm7.18 -2.66c0.2,-0.08 0.45,-0.12 0.75,-0.12 0.22,0 0.41,0.03 0.57,0.08 -0.06,0.9 -0.29,1.77 -0.68,2.6 -0.4,0.83 -0.87,1.5 -1.41,2.01 -0.55,0.51 -1.06,0.76 -1.53,0.76 -0.26,0 -0.46,-0.09 -0.61,-0.26 -0.14,-0.18 -0.21,-0.42 -0.21,-0.74l0.13 -3.57 -0.75 0.06c-0.02,-0.09 -0.03,-0.18 -0.03,-0.27 0,-0.1 0.01,-0.2 0.04,-0.31 0.22,-0.11 0.51,-0.2 0.86,-0.27 0.35,-0.07 0.65,-0.1 0.9,-0.09l0.29 0.18 -0.21 4.48c0.27,-0.14 0.55,-0.45 0.84,-0.94 0.29,-0.48 0.54,-1.05 0.74,-1.7 0.2,-0.65 0.3,-1.28 0.31,-1.9zm5.87 1.14c0,0.63 -0.29,1.1 -0.88,1.42 -0.59,0.31 -1.26,0.52 -2.01,0.62 0.01,0.41 0.09,0.72 0.25,0.92 0.15,0.2 0.37,0.3 0.65,0.3 0.2,0 0.4,-0.06 0.6,-0.17 0.2,-0.12 0.37,-0.28 0.53,-0.48 0.19,0.09 0.33,0.21 0.41,0.37 -0.19,0.34 -0.46,0.63 -0.81,0.86 -0.36,0.23 -0.76,0.35 -1.22,0.35 -0.6,0 -1.05,-0.19 -1.37,-0.57 -0.31,-0.37 -0.47,-0.89 -0.47,-1.55 0,-0.62 0.14,-1.19 0.42,-1.71 0.27,-0.51 0.63,-0.92 1.08,-1.22 0.45,-0.3 0.91,-0.45 1.38,-0.45 0.45,0 0.8,0.13 1.06,0.37 0.26,0.25 0.38,0.56 0.38,0.94zm-2.87 1.52c0.54,-0.09 0.95,-0.27 1.22,-0.54 0.28,-0.27 0.42,-0.59 0.42,-0.97 0,-0.18 -0.04,-0.33 -0.12,-0.43 -0.07,-0.1 -0.18,-0.16 -0.32,-0.16 -0.18,0 -0.36,0.1 -0.53,0.3 -0.17,0.2 -0.31,0.46 -0.43,0.79 -0.12,0.32 -0.2,0.66 -0.24,1.01zm8.4 1.53c0.12,0.11 0.18,0.25 0.2,0.44 -0.16,0.21 -0.37,0.37 -0.63,0.5 -0.25,0.13 -0.5,0.19 -0.73,0.19 -0.24,0 -0.44,-0.07 -0.59,-0.2 -0.16,-0.13 -0.23,-0.33 -0.23,-0.58 0,-0.2 0.09,-0.78 0.27,-1.77 0.15,-0.79 0.23,-1.26 0.23,-1.4 0,-0.26 -0.1,-0.39 -0.29,-0.39 -0.17,0 -0.36,0.11 -0.57,0.33 -0.21,0.23 -0.4,0.53 -0.57,0.9 -0.17,0.38 -0.3,0.78 -0.37,1.2l-0.31 1.82c-0.22,0.03 -0.44,0.05 -0.66,0.05 -0.21,0 -0.43,-0.02 -0.65,-0.05l0.75 -4.47 -0.76 0.06c-0.02,-0.09 -0.04,-0.17 -0.04,-0.26 0,-0.08 0.02,-0.18 0.06,-0.32 0.21,-0.11 0.48,-0.2 0.82,-0.27 0.33,-0.08 0.66,-0.11 0.98,-0.09l0.29 0.18 -0.25 1.46c0.2,-0.48 0.48,-0.87 0.83,-1.18 0.36,-0.3 0.74,-0.46 1.15,-0.46 0.29,0 0.52,0.1 0.68,0.29 0.16,0.19 0.24,0.43 0.24,0.74 0,0.26 -0.09,0.94 -0.28,2.04l-0.06 0.33c-0.04,0.2 -0.1,0.56 -0.19,1.09l0.68 -0.18zm1.77 1.13c-0.24,0 -0.43,-0.07 -0.58,-0.2 -0.15,-0.13 -0.23,-0.33 -0.23,-0.58 0,-0.16 0.04,-0.49 0.13,-0.99 0.01,-0.13 0.03,-0.22 0.04,-0.27l0.06 -0.34 0.37 -2.18 -0.76 0.06c-0.03,-0.13 -0.04,-0.22 -0.04,-0.27 0,-0.08 0.02,-0.18 0.06,-0.31 0.23,-0.11 0.52,-0.2 0.87,-0.27 0.35,-0.08 0.69,-0.11 1.02,-0.09l0.29 0.18 -0.73 4.31 0.68 -0.18c0.11,0.11 0.18,0.25 0.2,0.44 -0.17,0.21 -0.38,0.37 -0.64,0.5 -0.25,0.13 -0.5,0.19 -0.74,0.19zm0.63 -6.12c-0.23,0 -0.41,-0.06 -0.54,-0.18 -0.13,-0.12 -0.19,-0.28 -0.19,-0.48 0,-0.25 0.1,-0.47 0.29,-0.65 0.19,-0.19 0.41,-0.28 0.65,-0.28 0.21,0 0.38,0.06 0.51,0.18 0.12,0.12 0.19,0.29 0.19,0.49 0,0.25 -0.1,0.47 -0.28,0.65 -0.18,0.18 -0.39,0.27 -0.63,0.27zm9.1 4.99c0.11,0.11 0.18,0.25 0.2,0.44 -0.16,0.21 -0.37,0.37 -0.63,0.5 -0.25,0.13 -0.5,0.19 -0.74,0.19 -0.24,0 -0.43,-0.07 -0.58,-0.2 -0.15,-0.13 -0.23,-0.33 -0.23,-0.58 0,-0.15 0.03,-0.39 0.09,-0.75 0.06,-0.35 0.1,-0.55 0.11,-0.61l0.06 -0.38c0.15,-0.75 0.22,-1.21 0.22,-1.38 0,-0.27 -0.1,-0.4 -0.3,-0.4 -0.16,0 -0.34,0.1 -0.54,0.31 -0.19,0.2 -0.37,0.48 -0.53,0.83 -0.16,0.35 -0.27,0.74 -0.34,1.15l-0.34 1.92c-0.22,0.03 -0.43,0.05 -0.65,0.05 -0.22,0 -0.44,-0.02 -0.66,-0.05l0.26 -1.51c0.04,-0.27 0.08,-0.45 0.1,-0.54 0.18,-1.05 0.27,-1.64 0.27,-1.78 0,-0.25 -0.1,-0.38 -0.3,-0.38 -0.17,0 -0.35,0.11 -0.55,0.32 -0.19,0.21 -0.37,0.5 -0.53,0.87 -0.17,0.36 -0.29,0.76 -0.36,1.19l-0.31 1.83c-0.22,0.03 -0.44,0.05 -0.66,0.05 -0.21,0 -0.43,-0.02 -0.65,-0.05l0.75 -4.47 -0.76 0.06c-0.02,-0.09 -0.04,-0.17 -0.04,-0.26 0,-0.08 0.02,-0.18 0.06,-0.32 0.21,-0.11 0.48,-0.2 0.82,-0.27 0.33,-0.08 0.66,-0.11 0.98,-0.09l0.29 0.18 -0.25 1.45c0.2,-0.48 0.47,-0.87 0.82,-1.18 0.35,-0.3 0.72,-0.46 1.11,-0.46 0.29,0 0.52,0.1 0.68,0.29 0.17,0.19 0.25,0.43 0.25,0.73 0,0.11 -0.01,0.3 -0.05,0.55 0.2,-0.46 0.47,-0.84 0.8,-1.13 0.33,-0.29 0.68,-0.44 1.05,-0.44 0.29,0 0.52,0.1 0.69,0.29 0.17,0.19 0.25,0.43 0.25,0.73 0,0.19 -0.03,0.46 -0.08,0.82 -0.05,0.36 -0.14,0.85 -0.25,1.48l-0.08 0.46c-0.03,0.13 -0.07,0.37 -0.13,0.72l0.68 -0.18zm2.51 1.14c-0.55,0 -0.99,-0.19 -1.31,-0.58 -0.32,-0.38 -0.48,-0.88 -0.48,-1.5 0,-0.64 0.13,-1.21 0.41,-1.74 0.27,-0.52 0.63,-0.93 1.08,-1.23 0.45,-0.3 0.92,-0.45 1.42,-0.45 0.55,0 0.99,0.19 1.31,0.58 0.32,0.39 0.48,0.89 0.48,1.53 0,0.62 -0.14,1.2 -0.41,1.72 -0.27,0.51 -0.62,0.92 -1.07,1.22 -0.45,0.3 -0.92,0.45 -1.43,0.45zm0.24 -0.73c0.22,0 0.43,-0.14 0.62,-0.41 0.19,-0.27 0.35,-0.63 0.46,-1.08 0.11,-0.44 0.17,-0.91 0.17,-1.41 0,-0.37 -0.05,-0.65 -0.16,-0.85 -0.11,-0.19 -0.26,-0.29 -0.46,-0.29 -0.22,0 -0.42,0.14 -0.61,0.42 -0.19,0.27 -0.34,0.64 -0.46,1.09 -0.11,0.45 -0.17,0.92 -0.17,1.41 0,0.37 0.06,0.65 0.16,0.84 0.1,0.18 0.25,0.28 0.45,0.28zm4.59 0.73c-0.32,0 -0.65,-0.05 -0.97,-0.17 -0.31,-0.11 -0.55,-0.25 -0.7,-0.42 0.03,-0.2 0.11,-0.41 0.24,-0.62 0.13,-0.2 0.29,-0.35 0.46,-0.43 0.16,0.29 0.35,0.51 0.57,0.66 0.22,0.14 0.45,0.22 0.68,0.22 0.19,0 0.35,-0.05 0.48,-0.14 0.13,-0.09 0.19,-0.2 0.19,-0.35 0,-0.14 -0.06,-0.28 -0.18,-0.4 -0.12,-0.12 -0.31,-0.28 -0.58,-0.47 -0.26,-0.19 -0.48,-0.36 -0.65,-0.51 -0.16,-0.15 -0.31,-0.33 -0.43,-0.55 -0.12,-0.21 -0.17,-0.45 -0.17,-0.73 0,-0.34 0.09,-0.62 0.27,-0.87 0.19,-0.24 0.44,-0.42 0.74,-0.54 0.31,-0.12 0.63,-0.18 0.97,-0.18 0.3,0 0.58,0.05 0.85,0.14 0.27,0.09 0.48,0.21 0.64,0.36 -0.04,0.2 -0.13,0.41 -0.26,0.61 -0.13,0.2 -0.29,0.33 -0.47,0.41 -0.12,-0.24 -0.27,-0.43 -0.45,-0.57 -0.19,-0.14 -0.37,-0.21 -0.55,-0.21 -0.16,0 -0.31,0.05 -0.43,0.14 -0.12,0.09 -0.18,0.21 -0.18,0.35 0,0.15 0.07,0.29 0.19,0.42 0.13,0.13 0.32,0.29 0.59,0.47 0.27,0.19 0.48,0.36 0.64,0.5 0.16,0.14 0.3,0.31 0.41,0.52 0.12,0.21 0.18,0.44 0.18,0.7 0,0.34 -0.1,0.64 -0.31,0.89 -0.2,0.25 -0.46,0.45 -0.78,0.58 -0.32,0.13 -0.65,0.19 -0.99,0.19zm7.09 0c-0.57,0 -1,-0.19 -1.31,-0.56 -0.31,-0.38 -0.46,-0.89 -0.46,-1.54 0,-0.63 0.14,-1.2 0.41,-1.72 0.26,-0.52 0.62,-0.93 1.07,-1.23 0.45,-0.3 0.93,-0.45 1.43,-0.45 0.27,0 0.53,0.04 0.77,0.13 0.24,0.08 0.44,0.21 0.58,0.38 0,0.22 -0.07,0.43 -0.2,0.65 -0.14,0.21 -0.31,0.36 -0.52,0.44 -0.12,-0.26 -0.24,-0.46 -0.37,-0.6 -0.12,-0.13 -0.27,-0.2 -0.45,-0.2 -0.25,0 -0.47,0.11 -0.67,0.34 -0.2,0.22 -0.36,0.53 -0.48,0.9 -0.11,0.37 -0.17,0.78 -0.17,1.2 0,0.44 0.08,0.77 0.23,1 0.16,0.22 0.37,0.33 0.64,0.33 0.19,0 0.39,-0.06 0.59,-0.17 0.2,-0.12 0.38,-0.28 0.52,-0.48 0.2,0.09 0.34,0.21 0.42,0.37 -0.19,0.35 -0.46,0.64 -0.81,0.87 -0.36,0.23 -0.76,0.34 -1.22,0.34zm4.44 0c-0.55,0 -0.99,-0.19 -1.31,-0.58 -0.33,-0.38 -0.49,-0.88 -0.49,-1.5 0,-0.64 0.14,-1.21 0.41,-1.74 0.27,-0.52 0.63,-0.93 1.08,-1.23 0.45,-0.3 0.93,-0.45 1.43,-0.45 0.55,0 0.98,0.19 1.3,0.58 0.32,0.39 0.48,0.89 0.48,1.53 0,0.62 -0.13,1.2 -0.4,1.72 -0.27,0.51 -0.63,0.92 -1.07,1.22 -0.45,0.3 -0.93,0.45 -1.43,0.45zm0.24 -0.73c0.22,0 0.42,-0.14 0.62,-0.41 0.19,-0.27 0.34,-0.63 0.46,-1.08 0.11,-0.44 0.17,-0.91 0.17,-1.41 0,-0.37 -0.06,-0.65 -0.16,-0.85 -0.11,-0.19 -0.26,-0.29 -0.46,-0.29 -0.22,0 -0.43,0.14 -0.62,0.42 -0.19,0.27 -0.34,0.64 -0.45,1.09 -0.11,0.45 -0.17,0.92 -0.17,1.41 0,0.37 0.05,0.65 0.15,0.84 0.11,0.18 0.26,0.28 0.46,0.28zm8.32 -0.41c0.11,0.11 0.18,0.25 0.2,0.44 -0.17,0.21 -0.38,0.37 -0.63,0.5 -0.25,0.13 -0.5,0.19 -0.74,0.19 -0.24,0 -0.43,-0.07 -0.59,-0.2 -0.15,-0.13 -0.23,-0.33 -0.23,-0.58 0,-0.2 0.09,-0.78 0.27,-1.77 0.16,-0.79 0.23,-1.26 0.23,-1.4 0,-0.26 -0.09,-0.39 -0.29,-0.39 -0.16,0 -0.35,0.11 -0.56,0.33 -0.21,0.23 -0.4,0.53 -0.57,0.9 -0.18,0.38 -0.3,0.78 -0.37,1.2l-0.31 1.82c-0.22,0.03 -0.44,0.05 -0.66,0.05 -0.21,0 -0.43,-0.02 -0.65,-0.05l0.75 -4.47 -0.76 0.06c-0.03,-0.09 -0.04,-0.17 -0.04,-0.26 0,-0.08 0.02,-0.18 0.06,-0.32 0.21,-0.11 0.48,-0.2 0.81,-0.27 0.34,-0.08 0.67,-0.11 0.99,-0.09l0.29 0.18 -0.25 1.46c0.2,-0.48 0.47,-0.87 0.83,-1.18 0.36,-0.3 0.74,-0.46 1.14,-0.46 0.3,0 0.52,0.1 0.69,0.29 0.16,0.19 0.24,0.43 0.24,0.74 0,0.26 -0.09,0.94 -0.28,2.04l-0.06 0.33c-0.04,0.2 -0.1,0.56 -0.19,1.09l0.68 -0.18zm6.21 0c0.11,0.11 0.18,0.25 0.2,0.44 -0.16,0.21 -0.37,0.38 -0.64,0.51 -0.26,0.12 -0.52,0.18 -0.77,0.18 -0.24,0 -0.43,-0.06 -0.57,-0.19 -0.14,-0.13 -0.21,-0.31 -0.21,-0.56 0,-0.13 0.04,-0.46 0.12,-0.97 0.08,-0.52 0.19,-1.18 0.32,-2l0.46 -2.83c-0.08,-0.23 -0.21,-0.41 -0.38,-0.55 -0.16,-0.14 -0.35,-0.21 -0.56,-0.21 -0.48,0 -0.79,0.47 -0.94,1.43l-0.09 0.55 1.14 -0.07c-0.03,0.31 -0.08,0.57 -0.15,0.77l-1.1 0 -0.99 6.12c-0.18,0.02 -0.4,0.04 -0.66,0.04 -0.26,0 -0.48,-0.02 -0.66,-0.04l1 -6.09c-0.23,-0.01 -0.43,-0.03 -0.6,-0.06 -0.17,-0.04 -0.28,-0.08 -0.32,-0.13 0,-0.17 0.04,-0.33 0.11,-0.49l0.93 -0.09 0.01 -0.06c0.08,-0.51 0.24,-0.97 0.5,-1.37 0.25,-0.41 0.56,-0.72 0.93,-0.95 0.37,-0.22 0.76,-0.34 1.18,-0.34 0.3,0 0.57,0.07 0.82,0.21l0.01 -0.1c0.33,-0.09 0.69,-0.12 1.07,-0.1l0.29 0.17 -1.13 6.98 0.68 -0.2zm1.99 1.13c-0.24,0 -0.43,-0.07 -0.58,-0.2 -0.15,-0.13 -0.23,-0.33 -0.23,-0.58 0,-0.16 0.05,-0.49 0.13,-0.99 0.02,-0.13 0.03,-0.22 0.04,-0.27l0.06 -0.34 0.37 -2.18 -0.76 0.06c-0.02,-0.13 -0.04,-0.22 -0.04,-0.27 0,-0.08 0.02,-0.18 0.06,-0.31 0.24,-0.11 0.53,-0.2 0.88,-0.27 0.35,-0.08 0.68,-0.11 1.01,-0.09l0.29 0.18 -0.73 4.31 0.68 -0.18c0.11,0.11 0.18,0.25 0.2,0.44 -0.17,0.21 -0.38,0.37 -0.63,0.5 -0.26,0.13 -0.51,0.19 -0.75,0.19zm0.63 -6.12c-0.22,0 -0.4,-0.06 -0.53,-0.18 -0.13,-0.12 -0.2,-0.28 -0.2,-0.48 0,-0.25 0.1,-0.47 0.29,-0.65 0.2,-0.19 0.41,-0.28 0.65,-0.28 0.21,0 0.38,0.06 0.51,0.18 0.13,0.12 0.19,0.29 0.19,0.49 0,0.25 -0.09,0.47 -0.28,0.65 -0.18,0.18 -0.39,0.27 -0.63,0.27zm3.07 6.13c-0.56,0 -1,-0.19 -1.3,-0.56 -0.31,-0.38 -0.46,-0.89 -0.46,-1.54 0,-0.63 0.13,-1.2 0.4,-1.72 0.27,-0.52 0.63,-0.93 1.08,-1.23 0.45,-0.3 0.92,-0.45 1.42,-0.45 0.28,0 0.53,0.04 0.78,0.13 0.24,0.08 0.43,0.21 0.58,0.38 0,0.22 -0.07,0.43 -0.21,0.65 -0.13,0.21 -0.3,0.36 -0.51,0.44 -0.12,-0.26 -0.24,-0.46 -0.37,-0.6 -0.12,-0.13 -0.28,-0.2 -0.46,-0.2 -0.24,0 -0.47,0.11 -0.67,0.34 -0.2,0.22 -0.35,0.53 -0.47,0.9 -0.12,0.37 -0.17,0.78 -0.17,1.2 0,0.44 0.07,0.77 0.23,1 0.16,0.22 0.37,0.33 0.63,0.33 0.2,0 0.39,-0.06 0.6,-0.17 0.2,-0.12 0.37,-0.28 0.52,-0.48 0.2,0.09 0.34,0.21 0.42,0.37 -0.19,0.35 -0.47,0.64 -0.82,0.87 -0.35,0.23 -0.76,0.34 -1.22,0.34zm4.99 -4.51l-0.58 3.5 1.15 -0.28c0.11,0.11 0.17,0.26 0.19,0.46 -0.18,0.22 -0.43,0.42 -0.74,0.58 -0.31,0.16 -0.65,0.24 -1.01,0.24 -0.28,0 -0.49,-0.07 -0.65,-0.22 -0.16,-0.14 -0.24,-0.35 -0.24,-0.62 0,-0.11 0.02,-0.33 0.07,-0.64 0.05,-0.31 0.11,-0.67 0.18,-1.07l0.33 -1.93c-0.24,0 -0.44,-0.02 -0.61,-0.06 -0.17,-0.03 -0.28,-0.07 -0.33,-0.12 0.01,-0.16 0.04,-0.33 0.11,-0.5l0.96 -0.1 0.14 -0.83c0.1,-0.24 0.25,-0.42 0.46,-0.56 0.2,-0.13 0.42,-0.2 0.66,-0.21l0.29 0.15 -0.26 1.5 1.19 -0.06c-0.01,0.12 -0.03,0.25 -0.06,0.4 -0.03,0.14 -0.07,0.27 -0.1,0.37l-1.15 0zm3.29 4.51c-0.56,0 -0.99,-0.19 -1.32,-0.58 -0.32,-0.38 -0.48,-0.88 -0.48,-1.5 0,-0.64 0.14,-1.21 0.41,-1.74 0.27,-0.52 0.63,-0.93 1.08,-1.23 0.45,-0.3 0.93,-0.45 1.42,-0.45 0.56,0 0.99,0.19 1.31,0.58 0.32,0.39 0.48,0.89 0.48,1.53 0,0.62 -0.13,1.2 -0.4,1.72 -0.27,0.51 -0.63,0.92 -1.08,1.22 -0.44,0.3 -0.92,0.45 -1.42,0.45zm0.24 -0.73c0.22,0 0.42,-0.14 0.62,-0.41 0.19,-0.27 0.34,-0.63 0.45,-1.08 0.12,-0.44 0.17,-0.91 0.17,-1.41 0,-0.37 -0.05,-0.65 -0.16,-0.85 -0.1,-0.19 -0.26,-0.29 -0.45,-0.29 -0.22,0 -0.43,0.14 -0.62,0.42 -0.19,0.27 -0.34,0.64 -0.45,1.09 -0.12,0.45 -0.17,0.92 -0.17,1.41 0,0.37 0.05,0.65 0.15,0.84 0.11,0.18 0.26,0.28 0.46,0.28zm4.59 0.73c-0.33,0 -0.65,-0.05 -0.97,-0.17 -0.32,-0.11 -0.56,-0.25 -0.71,-0.42 0.03,-0.2 0.12,-0.41 0.24,-0.62 0.13,-0.2 0.29,-0.35 0.47,-0.43 0.15,0.29 0.34,0.51 0.56,0.66 0.23,0.14 0.45,0.22 0.69,0.22 0.18,0 0.34,-0.05 0.47,-0.14 0.13,-0.09 0.19,-0.2 0.19,-0.35 0,-0.14 -0.05,-0.28 -0.17,-0.4 -0.12,-0.12 -0.32,-0.28 -0.58,-0.47 -0.27,-0.19 -0.49,-0.36 -0.65,-0.51 -0.17,-0.15 -0.31,-0.33 -0.43,-0.55 -0.12,-0.21 -0.18,-0.45 -0.18,-0.73 0,-0.34 0.09,-0.62 0.28,-0.87 0.18,-0.24 0.43,-0.42 0.74,-0.54 0.3,-0.12 0.63,-0.18 0.96,-0.18 0.3,0 0.59,0.05 0.85,0.14 0.27,0.09 0.48,0.21 0.64,0.36 -0.04,0.2 -0.12,0.41 -0.26,0.61 -0.13,0.2 -0.29,0.33 -0.47,0.41 -0.12,-0.24 -0.27,-0.43 -0.45,-0.57 -0.18,-0.14 -0.36,-0.21 -0.54,-0.21 -0.17,0 -0.31,0.05 -0.43,0.14 -0.12,0.09 -0.18,0.21 -0.18,0.35 0,0.15 0.06,0.29 0.19,0.42 0.12,0.13 0.32,0.29 0.59,0.47 0.26,0.19 0.47,0.36 0.63,0.5 0.16,0.14 0.3,0.31 0.42,0.52 0.11,0.21 0.17,0.44 0.17,0.7 0,0.34 -0.1,0.64 -0.3,0.89 -0.2,0.25 -0.47,0.45 -0.79,0.58 -0.31,0.13 -0.64,0.19 -0.98,0.19zm2.89 1.58c-0.21,-0.05 -0.36,-0.18 -0.45,-0.38 0.24,-0.23 0.41,-0.47 0.52,-0.73 0.1,-0.27 0.15,-0.53 0.15,-0.79 0,-0.29 -0.1,-0.56 -0.3,-0.78 0.11,-0.2 0.24,-0.36 0.41,-0.48 0.16,-0.11 0.34,-0.17 0.55,-0.17 0.24,0 0.43,0.08 0.55,0.26 0.13,0.17 0.19,0.39 0.19,0.68 0,0.44 -0.15,0.88 -0.43,1.3 -0.29,0.43 -0.68,0.79 -1.19,1.09zm6.85 -1.58c-0.57,0 -1.01,-0.19 -1.31,-0.56 -0.31,-0.38 -0.46,-0.89 -0.46,-1.54 0,-0.63 0.13,-1.2 0.4,-1.72 0.27,-0.52 0.63,-0.93 1.08,-1.23 0.45,-0.3 0.92,-0.45 1.42,-0.45 0.28,0 0.53,0.04 0.78,0.13 0.24,0.08 0.43,0.21 0.58,0.38 0,0.22 -0.07,0.43 -0.2,0.65 -0.14,0.21 -0.31,0.36 -0.52,0.44 -0.12,-0.26 -0.24,-0.46 -0.37,-0.6 -0.12,-0.13 -0.28,-0.2 -0.46,-0.2 -0.24,0 -0.46,0.11 -0.66,0.34 -0.2,0.22 -0.36,0.53 -0.48,0.9 -0.11,0.37 -0.17,0.78 -0.17,1.2 0,0.44 0.08,0.77 0.23,1 0.16,0.22 0.37,0.33 0.64,0.33 0.19,0 0.39,-0.06 0.59,-0.17 0.2,-0.12 0.38,-0.28 0.52,-0.48 0.2,0.09 0.34,0.21 0.42,0.37 -0.19,0.35 -0.46,0.64 -0.82,0.87 -0.35,0.23 -0.75,0.34 -1.21,0.34zm6.59 -5.47c0.14,0 0.26,0.04 0.37,0.11 0.11,0.07 0.2,0.16 0.26,0.27 -0.01,0.21 -0.06,0.42 -0.17,0.64 -0.11,0.22 -0.25,0.41 -0.43,0.57 -0.12,-0.14 -0.26,-0.2 -0.44,-0.2 -0.2,0 -0.41,0.11 -0.62,0.33 -0.2,0.22 -0.38,0.5 -0.53,0.85 -0.16,0.35 -0.27,0.72 -0.33,1.1l-0.3 1.7c-0.22,0.03 -0.44,0.05 -0.65,0.05 -0.22,0 -0.44,-0.02 -0.66,-0.05l0.76 -4.47 -0.76 0.06c-0.03,-0.09 -0.04,-0.17 -0.04,-0.26 0,-0.08 0.02,-0.18 0.06,-0.32 0.21,-0.11 0.48,-0.2 0.81,-0.27 0.33,-0.08 0.66,-0.11 0.99,-0.09l0.29 0.18 -0.33 1.88c0.18,-0.6 0.43,-1.1 0.75,-1.49 0.32,-0.39 0.64,-0.59 0.97,-0.59z"/>
   <path class="fil2 str0" d="M234.47 76.64c0,0.63 -0.29,1.1 -0.88,1.42 -0.59,0.31 -1.26,0.52 -2.01,0.62 0,0.41 0.09,0.72 0.24,0.92 0.16,0.2 0.38,0.3 0.66,0.3 0.2,0 0.4,-0.06 0.59,-0.17 0.2,-0.12 0.38,-0.28 0.53,-0.48 0.2,0.09 0.33,0.21 0.41,0.37 -0.18,0.34 -0.45,0.63 -0.81,0.86 -0.35,0.23 -0.75,0.35 -1.21,0.35 -0.6,0 -1.06,-0.19 -1.37,-0.57 -0.31,-0.37 -0.47,-0.89 -0.47,-1.55 0,-0.62 0.14,-1.19 0.42,-1.71 0.27,-0.51 0.63,-0.92 1.08,-1.22 0.44,-0.3 0.9,-0.45 1.38,-0.45 0.45,0 0.8,0.13 1.06,0.37 0.25,0.25 0.38,0.56 0.38,0.94zm-2.87 1.52c0.54,-0.09 0.94,-0.27 1.22,-0.54 0.28,-0.27 0.41,-0.59 0.41,-0.97 0,-0.18 -0.03,-0.33 -0.11,-0.43 -0.08,-0.1 -0.18,-0.16 -0.32,-0.16 -0.18,0 -0.36,0.1 -0.53,0.3 -0.17,0.2 -0.31,0.46 -0.43,0.79 -0.12,0.32 -0.2,0.66 -0.24,1.01zm8.09 1.53c0.11,0.11 0.18,0.25 0.2,0.44 -0.17,0.21 -0.37,0.37 -0.62,0.5 -0.25,0.13 -0.49,0.19 -0.72,0.19 -0.24,0 -0.43,-0.06 -0.57,-0.19 -0.14,-0.14 -0.21,-0.31 -0.21,-0.52 0,-0.14 0.02,-0.29 0.04,-0.45 0.03,-0.16 0.05,-0.27 0.05,-0.33 -0.17,0.45 -0.41,0.81 -0.7,1.07 -0.29,0.27 -0.62,0.4 -0.98,0.4 -0.37,0 -0.68,-0.16 -0.92,-0.47 -0.25,-0.31 -0.37,-0.76 -0.37,-1.36 0,-0.63 0.13,-1.22 0.38,-1.78 0.24,-0.56 0.61,-1.01 1.08,-1.35 0.47,-0.34 1.02,-0.51 1.65,-0.51 0.34,0 0.65,0.04 0.94,0.13 0.3,0.08 0.54,0.21 0.75,0.39l-0.68 4.02 0.68 -0.18zm-2.93 0c0.16,0 0.33,-0.11 0.51,-0.31 0.18,-0.21 0.35,-0.49 0.5,-0.84 0.16,-0.35 0.27,-0.73 0.34,-1.13l0.17 -1.03c-0.06,-0.1 -0.15,-0.18 -0.26,-0.23 -0.1,-0.06 -0.22,-0.09 -0.33,-0.09 -0.29,0 -0.54,0.14 -0.74,0.41 -0.21,0.27 -0.36,0.61 -0.47,1.02 -0.1,0.41 -0.15,0.82 -0.15,1.24 0,0.64 0.14,0.96 0.43,0.96zm11.51 0c0.12,0.11 0.18,0.25 0.2,0.44 -0.16,0.21 -0.37,0.37 -0.62,0.5 -0.26,0.13 -0.51,0.19 -0.74,0.19 -0.24,0 -0.44,-0.07 -0.59,-0.2 -0.15,-0.13 -0.22,-0.33 -0.22,-0.58 0,-0.15 0.03,-0.39 0.09,-0.75 0.06,-0.35 0.09,-0.55 0.11,-0.61l0.06 -0.38c0.14,-0.75 0.22,-1.21 0.22,-1.38 0,-0.27 -0.1,-0.4 -0.3,-0.4 -0.17,0 -0.35,0.1 -0.54,0.31 -0.2,0.2 -0.37,0.48 -0.53,0.83 -0.16,0.35 -0.28,0.74 -0.35,1.15l-0.34 1.92c-0.21,0.03 -0.43,0.05 -0.65,0.05 -0.22,0 -0.44,-0.02 -0.66,-0.05l0.26 -1.51c0.05,-0.27 0.08,-0.45 0.1,-0.54 0.18,-1.05 0.27,-1.64 0.27,-1.78 0,-0.25 -0.1,-0.38 -0.3,-0.38 -0.16,0 -0.35,0.11 -0.54,0.32 -0.2,0.21 -0.38,0.5 -0.54,0.87 -0.16,0.36 -0.28,0.76 -0.35,1.19l-0.31 1.83c-0.22,0.03 -0.44,0.05 -0.66,0.05 -0.22,0 -0.43,-0.02 -0.65,-0.05l0.75 -4.47 -0.76 0.06c-0.03,-0.09 -0.04,-0.17 -0.04,-0.26 0,-0.08 0.02,-0.18 0.06,-0.32 0.2,-0.11 0.48,-0.2 0.81,-0.27 0.34,-0.08 0.67,-0.11 0.98,-0.09l0.29 0.18 -0.25 1.45c0.2,-0.48 0.48,-0.87 0.83,-1.18 0.35,-0.3 0.71,-0.46 1.1,-0.46 0.29,0 0.52,0.1 0.69,0.29 0.17,0.19 0.25,0.43 0.25,0.73 0,0.11 -0.02,0.3 -0.05,0.55 0.2,-0.46 0.46,-0.84 0.79,-1.13 0.33,-0.29 0.68,-0.44 1.05,-0.44 0.3,0 0.53,0.1 0.69,0.29 0.17,0.19 0.25,0.43 0.25,0.73 0,0.19 -0.02,0.46 -0.08,0.82 -0.05,0.36 -0.13,0.85 -0.25,1.48l-0.08 0.46c-0.02,0.13 -0.07,0.37 -0.13,0.72l0.68 -0.18zm2.52 1.14c-0.55,0 -0.99,-0.19 -1.32,-0.58 -0.32,-0.38 -0.48,-0.88 -0.48,-1.5 0,-0.64 0.14,-1.21 0.41,-1.74 0.27,-0.52 0.63,-0.93 1.08,-1.23 0.45,-0.3 0.93,-0.45 1.42,-0.45 0.56,0 0.99,0.19 1.31,0.58 0.32,0.39 0.48,0.89 0.48,1.53 0,0.62 -0.13,1.2 -0.4,1.72 -0.27,0.51 -0.63,0.92 -1.08,1.22 -0.44,0.3 -0.92,0.45 -1.42,0.45zm0.24 -0.73c0.22,0 0.42,-0.14 0.62,-0.41 0.19,-0.27 0.34,-0.63 0.45,-1.08 0.12,-0.44 0.17,-0.91 0.17,-1.41 0,-0.37 -0.05,-0.65 -0.16,-0.85 -0.1,-0.19 -0.26,-0.29 -0.45,-0.29 -0.22,0 -0.43,0.14 -0.62,0.42 -0.19,0.27 -0.34,0.64 -0.45,1.09 -0.12,0.45 -0.17,0.92 -0.17,1.41 0,0.37 0.05,0.65 0.15,0.84 0.11,0.18 0.26,0.28 0.46,0.28zm4.59 0.73c-0.33,0 -0.65,-0.05 -0.97,-0.17 -0.32,-0.11 -0.56,-0.25 -0.71,-0.42 0.03,-0.2 0.12,-0.41 0.25,-0.62 0.12,-0.2 0.28,-0.35 0.46,-0.43 0.15,0.29 0.34,0.51 0.56,0.66 0.23,0.14 0.45,0.22 0.69,0.22 0.18,0 0.34,-0.05 0.47,-0.14 0.13,-0.09 0.19,-0.2 0.19,-0.35 0,-0.14 -0.05,-0.28 -0.17,-0.4 -0.12,-0.12 -0.32,-0.28 -0.58,-0.47 -0.27,-0.19 -0.49,-0.36 -0.65,-0.51 -0.17,-0.15 -0.31,-0.33 -0.43,-0.55 -0.12,-0.21 -0.18,-0.45 -0.18,-0.73 0,-0.34 0.09,-0.62 0.28,-0.87 0.18,-0.24 0.43,-0.42 0.74,-0.54 0.3,-0.12 0.63,-0.18 0.97,-0.18 0.29,0 0.58,0.05 0.84,0.14 0.27,0.09 0.48,0.21 0.64,0.36 -0.04,0.2 -0.12,0.41 -0.26,0.61 -0.13,0.2 -0.29,0.33 -0.47,0.41 -0.12,-0.24 -0.27,-0.43 -0.45,-0.57 -0.18,-0.14 -0.36,-0.21 -0.54,-0.21 -0.17,0 -0.31,0.05 -0.43,0.14 -0.12,0.09 -0.18,0.21 -0.18,0.35 0,0.15 0.06,0.29 0.19,0.42 0.12,0.13 0.32,0.29 0.59,0.47 0.26,0.19 0.47,0.36 0.63,0.5 0.16,0.14 0.3,0.31 0.42,0.52 0.11,0.21 0.17,0.44 0.17,0.7 0,0.34 -0.1,0.64 -0.3,0.89 -0.2,0.25 -0.47,0.45 -0.79,0.58 -0.31,0.13 -0.64,0.19 -0.98,0.19zm11.35 0c-0.55,0 -0.99,-0.19 -1.31,-0.58 -0.32,-0.38 -0.48,-0.88 -0.48,-1.5 0,-0.64 0.13,-1.21 0.41,-1.74 0.27,-0.52 0.63,-0.93 1.08,-1.23 0.45,-0.3 0.92,-0.45 1.42,-0.45 0.55,0 0.99,0.19 1.31,0.58 0.32,0.39 0.48,0.89 0.48,1.53 0,0.62 -0.14,1.2 -0.41,1.72 -0.27,0.51 -0.62,0.92 -1.07,1.22 -0.45,0.3 -0.92,0.45 -1.43,0.45zm0.24 -0.73c0.22,0 0.43,-0.14 0.62,-0.41 0.19,-0.27 0.35,-0.63 0.46,-1.08 0.11,-0.44 0.17,-0.91 0.17,-1.41 0,-0.37 -0.05,-0.65 -0.16,-0.85 -0.11,-0.19 -0.26,-0.29 -0.46,-0.29 -0.22,0 -0.42,0.14 -0.61,0.42 -0.19,0.27 -0.34,0.64 -0.46,1.09 -0.11,0.45 -0.17,0.92 -0.17,1.41 0,0.37 0.06,0.65 0.16,0.84 0.1,0.18 0.25,0.28 0.45,0.28zm4.25 0.72c-0.24,0 -0.44,-0.07 -0.59,-0.2 -0.15,-0.13 -0.23,-0.33 -0.23,-0.58 0,-0.14 0.04,-0.46 0.12,-0.95 0.08,-0.5 0.18,-1.16 0.31,-1.99l0.56 -3.48 -0.76 0.06c-0.02,-0.09 -0.04,-0.18 -0.04,-0.27 0,-0.1 0.02,-0.2 0.05,-0.31 0.22,-0.11 0.51,-0.2 0.86,-0.26 0.35,-0.07 0.69,-0.1 1.03,-0.1l0.29 0.17 -1.12 6.96 0.68 -0.18c0.11,0.11 0.18,0.25 0.2,0.44 -0.16,0.21 -0.37,0.37 -0.62,0.5 -0.25,0.13 -0.5,0.19 -0.74,0.19zm7.09 -1.13c0.11,0.11 0.18,0.25 0.2,0.44 -0.16,0.21 -0.37,0.37 -0.62,0.5 -0.25,0.13 -0.48,0.19 -0.69,0.19 -0.26,0 -0.46,-0.06 -0.6,-0.19 -0.14,-0.13 -0.21,-0.3 -0.21,-0.52 0,-0.1 0.04,-0.39 0.1,-0.85 -0.21,0.46 -0.49,0.83 -0.83,1.12 -0.34,0.3 -0.7,0.44 -1.08,0.44 -0.3,0 -0.54,-0.09 -0.7,-0.28 -0.17,-0.19 -0.25,-0.43 -0.25,-0.73 0,-0.2 0.03,-0.49 0.08,-0.87 0.06,-0.38 0.16,-0.97 0.3,-1.76l0.04 -0.22c0.03,-0.15 0.07,-0.38 0.13,-0.7l-0.76 0.06c-0.03,-0.13 -0.04,-0.22 -0.04,-0.27 0,-0.08 0.02,-0.18 0.06,-0.31 0.22,-0.1 0.51,-0.19 0.88,-0.27 0.36,-0.08 0.7,-0.11 1.01,-0.09l0.28 0.18 -0.17 0.95c-0.11,0.59 -0.21,1.17 -0.31,1.73 -0.1,0.56 -0.14,0.9 -0.14,1.03 0,0.27 0.09,0.41 0.28,0.41 0.18,0 0.38,-0.12 0.58,-0.34 0.2,-0.22 0.39,-0.52 0.55,-0.9 0.17,-0.37 0.29,-0.78 0.36,-1.21l0.31 -1.77c0.22,-0.04 0.44,-0.06 0.66,-0.06 0.22,0 0.44,0.02 0.66,0.06l-0.76 4.41 0.68 -0.18zm2.53 1.14c-0.56,0 -1,-0.19 -1.3,-0.56 -0.31,-0.38 -0.46,-0.89 -0.46,-1.54 0,-0.63 0.13,-1.2 0.4,-1.72 0.27,-0.52 0.63,-0.93 1.08,-1.23 0.45,-0.3 0.92,-0.45 1.42,-0.45 0.27,0 0.53,0.04 0.77,0.13 0.25,0.08 0.44,0.21 0.59,0.38 0,0.22 -0.07,0.43 -0.21,0.65 -0.13,0.21 -0.3,0.36 -0.51,0.44 -0.12,-0.26 -0.24,-0.46 -0.37,-0.6 -0.13,-0.13 -0.28,-0.2 -0.46,-0.2 -0.25,0 -0.47,0.11 -0.67,0.34 -0.2,0.22 -0.36,0.53 -0.47,0.9 -0.12,0.37 -0.18,0.78 -0.18,1.2 0,0.44 0.08,0.77 0.24,1 0.15,0.22 0.37,0.33 0.63,0.33 0.19,0 0.39,-0.06 0.6,-0.17 0.2,-0.12 0.37,-0.28 0.52,-0.48 0.2,0.09 0.34,0.21 0.42,0.37 -0.19,0.35 -0.47,0.64 -0.82,0.87 -0.35,0.23 -0.76,0.34 -1.22,0.34zm3.93 -0.01c-0.24,0 -0.43,-0.07 -0.58,-0.2 -0.15,-0.13 -0.22,-0.33 -0.22,-0.58 0,-0.16 0.04,-0.49 0.13,-0.99 0.01,-0.13 0.02,-0.22 0.04,-0.27l0.06 -0.34 0.36 -2.18 -0.75 0.06c-0.03,-0.13 -0.04,-0.22 -0.04,-0.27 0,-0.08 0.02,-0.18 0.06,-0.31 0.23,-0.11 0.52,-0.2 0.87,-0.27 0.35,-0.08 0.69,-0.11 1.01,-0.09l0.29 0.18 -0.73 4.31 0.68 -0.18c0.11,0.11 0.18,0.25 0.2,0.44 -0.16,0.21 -0.38,0.37 -0.63,0.5 -0.26,0.13 -0.51,0.19 -0.75,0.19zm0.63 -6.12c-0.22,0 -0.4,-0.06 -0.53,-0.18 -0.13,-0.12 -0.2,-0.28 -0.2,-0.48 0,-0.25 0.1,-0.47 0.29,-0.65 0.2,-0.19 0.41,-0.28 0.65,-0.28 0.22,0 0.39,0.06 0.51,0.18 0.13,0.12 0.19,0.29 0.19,0.49 0,0.25 -0.09,0.47 -0.27,0.65 -0.19,0.18 -0.4,0.27 -0.64,0.27zm3.11 6.13c-0.56,0 -0.99,-0.19 -1.32,-0.58 -0.32,-0.38 -0.48,-0.88 -0.48,-1.5 0,-0.64 0.14,-1.21 0.41,-1.74 0.27,-0.52 0.63,-0.93 1.08,-1.23 0.45,-0.3 0.93,-0.45 1.42,-0.45 0.56,0 0.99,0.19 1.31,0.58 0.32,0.39 0.48,0.89 0.48,1.53 0,0.62 -0.13,1.2 -0.4,1.72 -0.27,0.51 -0.63,0.92 -1.08,1.22 -0.44,0.3 -0.92,0.45 -1.42,0.45zm0.24 -0.73c0.22,0 0.42,-0.14 0.61,-0.41 0.2,-0.27 0.35,-0.63 0.46,-1.08 0.12,-0.44 0.17,-0.91 0.17,-1.41 0,-0.37 -0.05,-0.65 -0.16,-0.85 -0.1,-0.19 -0.26,-0.29 -0.46,-0.29 -0.21,0 -0.42,0.14 -0.61,0.42 -0.19,0.27 -0.34,0.64 -0.45,1.09 -0.12,0.45 -0.17,0.92 -0.17,1.41 0,0.37 0.05,0.65 0.15,0.84 0.11,0.18 0.26,0.28 0.46,0.28zm8.32 -0.41c0.11,0.11 0.18,0.25 0.2,0.44 -0.17,0.21 -0.38,0.37 -0.63,0.5 -0.25,0.13 -0.5,0.19 -0.74,0.19 -0.24,0 -0.44,-0.07 -0.59,-0.2 -0.15,-0.13 -0.23,-0.33 -0.23,-0.58 0,-0.2 0.09,-0.78 0.27,-1.77 0.15,-0.79 0.23,-1.26 0.23,-1.4 0,-0.26 -0.1,-0.39 -0.29,-0.39 -0.16,0 -0.35,0.11 -0.56,0.33 -0.21,0.23 -0.4,0.53 -0.58,0.9 -0.17,0.38 -0.29,0.78 -0.36,1.2l-0.31 1.82c-0.22,0.03 -0.44,0.05 -0.66,0.05 -0.22,0 -0.43,-0.02 -0.65,-0.05l0.75 -4.47 -0.76 0.06c-0.03,-0.09 -0.04,-0.17 -0.04,-0.26 0,-0.08 0.02,-0.18 0.06,-0.32 0.2,-0.11 0.48,-0.2 0.81,-0.27 0.34,-0.08 0.67,-0.11 0.98,-0.09l0.29 0.18 -0.25 1.46c0.2,-0.48 0.48,-0.87 0.84,-1.18 0.35,-0.3 0.73,-0.46 1.14,-0.46 0.29,0 0.52,0.1 0.68,0.29 0.17,0.19 0.25,0.43 0.25,0.74 0,0.26 -0.09,0.94 -0.28,2.04l-0.06 0.33c-0.04,0.2 -0.1,0.56 -0.19,1.09l0.68 -0.18zm5.05 -3.05c0,0.63 -0.3,1.1 -0.89,1.42 -0.58,0.31 -1.25,0.52 -2.01,0.62 0.01,0.41 0.09,0.72 0.25,0.92 0.15,0.2 0.37,0.3 0.65,0.3 0.2,0 0.4,-0.06 0.6,-0.17 0.2,-0.12 0.38,-0.28 0.53,-0.48 0.19,0.09 0.33,0.21 0.41,0.37 -0.19,0.34 -0.46,0.63 -0.81,0.86 -0.35,0.23 -0.76,0.35 -1.22,0.35 -0.6,0 -1.05,-0.19 -1.36,-0.57 -0.32,-0.37 -0.47,-0.89 -0.47,-1.55 0,-0.62 0.13,-1.19 0.41,-1.71 0.28,-0.51 0.64,-0.92 1.08,-1.22 0.45,-0.3 0.91,-0.45 1.38,-0.45 0.45,0 0.81,0.13 1.06,0.37 0.26,0.25 0.39,0.56 0.39,0.94zm-2.88 1.52c0.54,-0.09 0.95,-0.27 1.23,-0.54 0.27,-0.27 0.41,-0.59 0.41,-0.97 0,-0.18 -0.04,-0.33 -0.11,-0.43 -0.08,-0.1 -0.19,-0.16 -0.33,-0.16 -0.18,0 -0.35,0.1 -0.52,0.3 -0.17,0.2 -0.32,0.46 -0.44,0.79 -0.12,0.32 -0.2,0.66 -0.24,1.01zm4.66 2.67c-0.32,0 -0.64,-0.05 -0.96,-0.17 -0.32,-0.11 -0.56,-0.25 -0.71,-0.42 0.03,-0.2 0.11,-0.41 0.24,-0.62 0.13,-0.2 0.29,-0.35 0.47,-0.43 0.15,0.29 0.34,0.51 0.56,0.66 0.22,0.14 0.45,0.22 0.68,0.22 0.19,0 0.35,-0.05 0.48,-0.14 0.13,-0.09 0.19,-0.2 0.19,-0.35 0,-0.14 -0.06,-0.28 -0.18,-0.4 -0.12,-0.12 -0.31,-0.28 -0.58,-0.47 -0.26,-0.19 -0.48,-0.36 -0.65,-0.51 -0.16,-0.15 -0.3,-0.33 -0.42,-0.55 -0.12,-0.21 -0.18,-0.45 -0.18,-0.73 0,-0.34 0.09,-0.62 0.28,-0.87 0.18,-0.24 0.43,-0.42 0.73,-0.54 0.31,-0.12 0.63,-0.18 0.97,-0.18 0.3,0 0.58,0.05 0.85,0.14 0.27,0.09 0.48,0.21 0.64,0.36 -0.04,0.2 -0.13,0.41 -0.26,0.61 -0.13,0.2 -0.29,0.33 -0.47,0.41 -0.12,-0.24 -0.27,-0.43 -0.45,-0.57 -0.19,-0.14 -0.37,-0.21 -0.55,-0.21 -0.16,0 -0.31,0.05 -0.43,0.14 -0.12,0.09 -0.18,0.21 -0.18,0.35 0,0.15 0.07,0.29 0.19,0.42 0.13,0.13 0.33,0.29 0.59,0.47 0.27,0.19 0.48,0.36 0.64,0.5 0.16,0.14 0.3,0.31 0.41,0.52 0.12,0.21 0.18,0.44 0.18,0.7 0,0.34 -0.1,0.64 -0.31,0.89 -0.2,0.25 -0.46,0.45 -0.78,0.58 -0.32,0.13 -0.65,0.19 -0.99,0.19zm3.52 -0.01c-0.24,0 -0.42,-0.06 -0.56,-0.19 -0.14,-0.13 -0.21,-0.3 -0.21,-0.52 0,-0.29 0.1,-0.53 0.3,-0.73 0.21,-0.2 0.44,-0.3 0.72,-0.3 0.22,0 0.4,0.06 0.53,0.19 0.13,0.13 0.19,0.31 0.19,0.53 0,0.28 -0.09,0.51 -0.28,0.72 -0.19,0.2 -0.42,0.3 -0.69,0.3zm3.3 -4.95c-0.07,0.01 -0.15,0.02 -0.26,0.02 -0.11,0 -0.23,-0.01 -0.34,-0.04 0.11,-0.82 0.16,-1.48 0.16,-1.98 0,-0.22 -0.01,-0.44 -0.03,-0.64 0.1,-0.07 0.22,-0.12 0.35,-0.16 0.14,-0.03 0.28,-0.05 0.41,-0.05 0.25,0 0.44,0.06 0.57,0.17 -0.24,1.03 -0.53,1.93 -0.86,2.68zm1.85 0c-0.07,0.01 -0.16,0.02 -0.26,0.02 -0.12,0 -0.23,-0.01 -0.34,-0.04 0.1,-0.82 0.16,-1.48 0.16,-1.98 0,-0.22 -0.01,-0.44 -0.03,-0.64 0.1,-0.07 0.21,-0.12 0.35,-0.16 0.14,-0.03 0.27,-0.05 0.4,-0.05 0.26,0 0.45,0.06 0.57,0.17 -0.24,1.03 -0.52,1.93 -0.85,2.68zm-50.51 4.96c-0.32,0 -0.65,-0.05 -0.97,-0.17 -0.31,-0.11 -0.55,-0.25 -0.7,-0.42 0.03,-0.2 0.11,-0.41 0.24,-0.62 0.13,-0.2 0.29,-0.35 0.46,-0.43 0.16,0.29 0.35,0.51 0.57,0.66 0.22,0.14 0.45,0.22 0.68,0.22 0.19,0 0.35,-0.05 0.48,-0.14 0.13,-0.09 0.19,-0.2 0.19,-0.35 0,-0.14 -0.06,-0.28 -0.18,-0.4 -0.12,-0.12 -0.31,-0.28 -0.58,-0.47 -0.26,-0.19 -0.48,-0.36 -0.65,-0.51 -0.16,-0.15 -0.31,-0.33 -0.43,-0.55 -0.12,-0.21 -0.18,-0.45 -0.18,-0.73 0,-0.34 0.1,-0.62 0.28,-0.87 0.19,-0.24 0.44,-0.42 0.74,-0.54 0.31,-0.12 0.63,-0.18 0.97,-0.18 0.3,0 0.58,0.05 0.85,0.14 0.27,0.09 0.48,0.21 0.64,0.36 -0.04,0.2 -0.13,0.41 -0.26,0.61 -0.13,0.2 -0.29,0.33 -0.47,0.41 -0.12,-0.24 -0.27,-0.43 -0.45,-0.57 -0.19,-0.14 -0.37,-0.21 -0.55,-0.21 -0.17,0 -0.31,0.05 -0.43,0.14 -0.12,0.09 -0.18,0.21 -0.18,0.35 0,0.15 0.07,0.29 0.19,0.42 0.13,0.13 0.32,0.29 0.59,0.47 0.27,0.19 0.48,0.36 0.64,0.5 0.16,0.14 0.3,0.31 0.41,0.52 0.12,0.21 0.18,0.44 0.18,0.7 0,0.34 -0.1,0.64 -0.31,0.89 -0.2,0.25 -0.46,0.45 -0.78,0.58 -0.32,0.13 -0.65,0.19 -0.99,0.19z"/>
   <path class="fil2 str0" d="M119.75 52.37l0 4.1c0,0.81 0.05,1.31 0.15,1.52 0.09,0.21 0.27,0.37 0.52,0.5 0.25,0.12 0.71,0.18 1.38,0.18l0 0.38 -7.51 0 0 -0.38c0.69,0 1.15,-0.06 1.39,-0.19 0.25,-0.12 0.42,-0.29 0.51,-0.5 0.1,-0.2 0.15,-0.7 0.15,-1.51l0 -9.6c0,-0.8 -0.05,-1.31 -0.15,-1.52 -0.09,-0.21 -0.26,-0.37 -0.51,-0.5 -0.25,-0.12 -0.71,-0.18 -1.39,-0.18l0 -0.38 6.44 0c2.12,0 3.64,0.38 4.56,1.13 0.93,0.76 1.39,1.7 1.39,2.83 0,0.96 -0.3,1.78 -0.9,2.47 -0.59,0.68 -1.41,1.14 -2.46,1.39 -0.7,0.18 -1.89,0.26 -3.57,0.26zm0 -7.24l0 6.4c0.24,0.01 0.42,0.02 0.55,0.02 0.88,0 1.57,-0.27 2.05,-0.79 0.48,-0.53 0.72,-1.35 0.72,-2.45 0,-1.1 -0.24,-1.9 -0.72,-2.41 -0.48,-0.51 -1.2,-0.77 -2.15,-0.77l-0.45 0zm13.96 12.41c-1.24,1.1 -2.36,1.65 -3.34,1.65 -0.58,0 -1.07,-0.19 -1.45,-0.57 -0.38,-0.38 -0.58,-0.86 -0.58,-1.43 0,-0.78 0.34,-1.48 1,-2.1 0.67,-0.62 2.13,-1.44 4.37,-2.47l0 -1.02c0,-0.76 -0.04,-1.25 -0.13,-1.45 -0.08,-0.19 -0.24,-0.37 -0.47,-0.52 -0.24,-0.15 -0.5,-0.22 -0.79,-0.22 -0.47,0 -0.86,0.1 -1.17,0.32 -0.19,0.13 -0.28,0.28 -0.28,0.45 0,0.15 0.1,0.34 0.3,0.57 0.28,0.31 0.42,0.61 0.42,0.9 0,0.35 -0.13,0.66 -0.4,0.9 -0.26,0.25 -0.61,0.38 -1.04,0.38 -0.45,0 -0.83,-0.14 -1.14,-0.41 -0.31,-0.28 -0.47,-0.6 -0.47,-0.97 0,-0.52 0.21,-1.02 0.62,-1.49 0.42,-0.48 0.99,-0.84 1.73,-1.1 0.75,-0.25 1.51,-0.37 2.31,-0.37 0.97,0 1.73,0.2 2.29,0.61 0.57,0.41 0.93,0.85 1.1,1.33 0.1,0.3 0.15,1 0.15,2.09l0 3.94c0,0.46 0.02,0.75 0.05,0.87 0.04,0.12 0.09,0.21 0.17,0.27 0.07,0.05 0.15,0.08 0.25,0.08 0.19,0 0.38,-0.13 0.58,-0.39l0.33 0.26c-0.36,0.54 -0.74,0.93 -1.13,1.17 -0.38,0.24 -0.83,0.37 -1.32,0.37 -0.58,0 -1.04,-0.14 -1.36,-0.41 -0.33,-0.28 -0.53,-0.69 -0.6,-1.24zm0 -0.8l0 -3.39c-0.88,0.52 -1.53,1.07 -1.96,1.65 -0.28,0.39 -0.42,0.79 -0.42,1.19 0,0.33 0.12,0.63 0.36,0.88 0.18,0.19 0.43,0.29 0.76,0.29 0.36,0 0.78,-0.21 1.26,-0.62zm9.51 -12.45l0 12.65c0,0.72 0.09,1.19 0.25,1.39 0.17,0.2 0.5,0.32 1,0.34l0 0.38 -5.55 0 0 -0.38c0.46,-0.01 0.8,-0.14 1.03,-0.39 0.14,-0.17 0.22,-0.62 0.22,-1.34l0 -10.54c0,-0.72 -0.09,-1.18 -0.26,-1.39 -0.17,-0.2 -0.5,-0.31 -0.99,-0.34l0 -0.38 4.3 0zm7.81 13.25c-1.24,1.1 -2.35,1.65 -3.34,1.65 -0.58,0 -1.06,-0.19 -1.45,-0.57 -0.38,-0.38 -0.57,-0.86 -0.57,-1.43 0,-0.78 0.33,-1.48 1,-2.1 0.67,-0.62 2.12,-1.44 4.36,-2.47l0 -1.02c0,-0.76 -0.04,-1.25 -0.12,-1.45 -0.08,-0.19 -0.24,-0.37 -0.48,-0.52 -0.23,-0.15 -0.5,-0.22 -0.78,-0.22 -0.48,0 -0.87,0.1 -1.17,0.32 -0.19,0.13 -0.29,0.28 -0.29,0.45 0,0.15 0.1,0.34 0.31,0.57 0.27,0.31 0.41,0.61 0.41,0.9 0,0.35 -0.13,0.66 -0.4,0.9 -0.26,0.25 -0.61,0.38 -1.03,0.38 -0.46,0 -0.84,-0.14 -1.15,-0.41 -0.31,-0.28 -0.46,-0.6 -0.46,-0.97 0,-0.52 0.2,-1.02 0.62,-1.49 0.41,-0.48 0.99,-0.84 1.73,-1.1 0.74,-0.25 1.51,-0.37 2.31,-0.37 0.96,0 1.72,0.2 2.29,0.61 0.56,0.41 0.92,0.85 1.09,1.33 0.1,0.3 0.15,1 0.15,2.09l0 3.94c0,0.46 0.02,0.75 0.06,0.87 0.04,0.12 0.09,0.21 0.16,0.27 0.08,0.05 0.16,0.08 0.25,0.08 0.19,0 0.39,-0.13 0.59,-0.39l0.32 0.26c-0.36,0.54 -0.74,0.93 -1.12,1.17 -0.39,0.24 -0.83,0.37 -1.33,0.37 -0.58,0 -1.03,-0.14 -1.36,-0.41 -0.33,-0.28 -0.52,-0.69 -0.6,-1.24zm0 -0.8l0 -3.39c-0.87,0.52 -1.53,1.07 -1.96,1.65 -0.28,0.39 -0.42,0.79 -0.42,1.19 0,0.33 0.12,0.63 0.36,0.88 0.18,0.19 0.44,0.29 0.76,0.29 0.37,0 0.78,-0.21 1.26,-0.62zm13.81 -0.33l0.34 0.26c-0.48,0.91 -1.08,1.57 -1.8,2.01 -0.71,0.44 -1.47,0.66 -2.28,0.66 -1.36,0 -2.44,-0.51 -3.25,-1.53 -0.82,-1.02 -1.23,-2.25 -1.23,-3.68 0,-1.38 0.38,-2.6 1.11,-3.64 0.9,-1.27 2.13,-1.9 3.69,-1.9 1.06,0 1.89,0.26 2.51,0.79 0.62,0.53 0.93,1.12 0.93,1.77 0,0.41 -0.12,0.74 -0.37,0.99 -0.25,0.24 -0.58,0.37 -0.98,0.37 -0.43,0 -0.79,-0.15 -1.07,-0.43 -0.28,-0.28 -0.45,-0.78 -0.52,-1.51 -0.04,-0.45 -0.14,-0.77 -0.31,-0.96 -0.17,-0.18 -0.36,-0.27 -0.59,-0.27 -0.35,0 -0.64,0.19 -0.89,0.56 -0.38,0.55 -0.57,1.41 -0.57,2.55 0,0.96 0.16,1.87 0.46,2.74 0.31,0.88 0.72,1.52 1.25,1.95 0.41,0.31 0.88,0.47 1.42,0.47 0.36,0 0.7,-0.09 1.02,-0.25 0.32,-0.17 0.69,-0.48 1.13,-0.95zm4.04 -12.46c0.47,0 0.87,0.17 1.19,0.5 0.33,0.33 0.49,0.72 0.49,1.19 0,0.47 -0.16,0.86 -0.49,1.19 -0.33,0.32 -0.73,0.49 -1.19,0.49 -0.47,0 -0.86,-0.17 -1.19,-0.49 -0.33,-0.33 -0.49,-0.72 -0.49,-1.19 0,-0.47 0.16,-0.86 0.49,-1.19 0.33,-0.33 0.72,-0.5 1.19,-0.5zm1.53 4.93l0 8.06c0,0.72 0.08,1.19 0.25,1.39 0.17,0.2 0.5,0.32 0.99,0.34l0 0.38 -5.54 0 0 -0.38c0.46,-0.01 0.8,-0.14 1.02,-0.39 0.15,-0.17 0.23,-0.62 0.23,-1.34l0 -5.95c0,-0.73 -0.09,-1.19 -0.26,-1.39 -0.17,-0.2 -0.5,-0.32 -0.99,-0.35l0 -0.37 4.3 0zm7.02 -0.29c0.88,0 1.7,0.22 2.46,0.68 0.75,0.46 1.33,1.11 1.73,1.94 0.39,0.84 0.59,1.76 0.59,2.76 0,1.44 -0.37,2.64 -1.1,3.61 -0.88,1.18 -2.1,1.76 -3.65,1.76 -1.53,0 -2.7,-0.53 -3.53,-1.6 -0.82,-1.07 -1.23,-2.32 -1.23,-3.73 0,-1.45 0.42,-2.72 1.26,-3.8 0.84,-1.08 2,-1.62 3.47,-1.62zm0.04 0.75c-0.36,0 -0.68,0.14 -0.94,0.42 -0.27,0.28 -0.44,0.83 -0.52,1.65 -0.09,0.82 -0.13,1.96 -0.13,3.43 0,0.77 0.05,1.5 0.15,2.17 0.08,0.51 0.25,0.91 0.51,1.18 0.26,0.26 0.56,0.4 0.89,0.4 0.33,0 0.6,-0.09 0.81,-0.28 0.28,-0.24 0.47,-0.59 0.57,-1.03 0.14,-0.68 0.21,-2.08 0.21,-4.17 0,-1.23 -0.06,-2.07 -0.2,-2.53 -0.14,-0.46 -0.34,-0.8 -0.61,-1.01 -0.19,-0.15 -0.43,-0.23 -0.74,-0.23zm12.71 -0.73l0.16 3.47 -0.38 0c-0.44,-1.03 -0.89,-1.73 -1.36,-2.11 -0.47,-0.37 -0.94,-0.56 -1.41,-0.56 -0.29,0 -0.54,0.1 -0.75,0.3 -0.21,0.2 -0.31,0.43 -0.31,0.69 0,0.19 0.07,0.38 0.21,0.56 0.23,0.3 0.88,0.8 1.94,1.52 1.06,0.72 1.75,1.34 2.09,1.84 0.33,0.5 0.5,1.06 0.5,1.68 0,0.57 -0.14,1.12 -0.42,1.66 -0.28,0.54 -0.68,0.96 -1.19,1.25 -0.51,0.29 -1.08,0.43 -1.7,0.43 -0.48,0 -1.13,-0.15 -1.93,-0.46 -0.22,-0.08 -0.36,-0.12 -0.45,-0.12 -0.23,0 -0.43,0.19 -0.59,0.56l-0.38 0 -0.18 -3.65 0.38 0c0.32,0.95 0.77,1.66 1.34,2.14 0.56,0.47 1.1,0.71 1.6,0.71 0.35,0 0.63,-0.11 0.85,-0.32 0.22,-0.22 0.33,-0.47 0.33,-0.78 0,-0.34 -0.11,-0.64 -0.32,-0.9 -0.22,-0.25 -0.7,-0.63 -1.45,-1.14 -1.11,-0.77 -1.82,-1.36 -2.15,-1.76 -0.47,-0.59 -0.71,-1.25 -0.71,-1.96 0,-0.79 0.27,-1.49 0.8,-2.12 0.54,-0.64 1.32,-0.95 2.34,-0.95 0.55,0 1.08,0.13 1.59,0.41 0.2,0.11 0.35,0.16 0.48,0.16 0.13,0 0.23,-0.02 0.31,-0.08 0.08,-0.06 0.21,-0.21 0.38,-0.47l0.38 0zm19.76 1.6l4.54 0 0 0.42c-0.51,0.08 -0.91,0.23 -1.2,0.46 -0.29,0.23 -0.67,0.76 -1.14,1.6 -0.46,0.84 -1.12,1.78 -1.96,2.81 0.74,0.67 1.34,1.13 1.81,1.39 0.33,0.18 0.65,0.27 0.96,0.27 0.54,0 1.03,-0.35 1.47,-1.05l0.42 0.23c-0.6,1.17 -1.23,2 -1.91,2.49 -0.51,0.37 -1.1,0.56 -1.76,0.56 -0.57,0 -1.1,-0.12 -1.62,-0.37 -0.51,-0.24 -1.13,-0.7 -1.86,-1.37 -0.91,0.61 -1.76,1.05 -2.56,1.33 -0.8,0.27 -1.63,0.41 -2.49,0.41 -1.38,0 -2.47,-0.38 -3.29,-1.12 -0.81,-0.75 -1.22,-1.63 -1.22,-2.64 0,-1.09 0.39,-2.04 1.17,-2.84 0.78,-0.81 1.9,-1.5 3.39,-2.09 -0.19,-0.47 -0.33,-0.93 -0.43,-1.38 -0.09,-0.45 -0.14,-0.89 -0.14,-1.31 0,-1.16 0.41,-2.13 1.23,-2.9 0.81,-0.77 1.86,-1.16 3.13,-1.16 1.02,0 1.83,0.26 2.43,0.77 0.59,0.51 0.9,1.11 0.9,1.79 0,0.82 -0.31,1.52 -0.92,2.1 -0.61,0.58 -1.58,1.12 -2.9,1.6 0.82,1.45 2.02,3.01 3.6,4.68 1.06,-1.2 1.59,-2.23 1.59,-3.09 0,-0.3 -0.11,-0.56 -0.32,-0.78 -0.21,-0.21 -0.52,-0.34 -0.92,-0.39l0 -0.42zm-4.33 -0.64c0.76,-0.28 1.27,-0.58 1.53,-0.91 0.26,-0.32 0.39,-0.71 0.39,-1.17 0,-0.8 -0.21,-1.49 -0.64,-2.05 -0.28,-0.37 -0.63,-0.55 -1.05,-0.55 -0.34,0 -0.64,0.13 -0.88,0.4 -0.24,0.27 -0.37,0.63 -0.37,1.09 0,0.35 0.06,0.73 0.18,1.14 0.12,0.4 0.4,1.09 0.84,2.05zm-2.62 1.83c-0.58,0.24 -0.99,0.5 -1.22,0.78 -0.35,0.4 -0.52,0.86 -0.52,1.36 0,0.68 0.2,1.36 0.6,2.03 0.39,0.68 0.87,1.2 1.42,1.57 0.56,0.37 1.12,0.56 1.68,0.56 0.27,0 0.58,-0.06 0.93,-0.18 0.34,-0.13 0.71,-0.3 1.12,-0.55 -1.75,-1.78 -3.08,-3.64 -4.01,-5.57zm26.39 3.44l-5.16 0 -0.65 1.44c-0.2,0.49 -0.3,0.89 -0.3,1.2 0,0.42 0.17,0.73 0.5,0.93 0.19,0.12 0.68,0.21 1.44,0.26l0 0.38 -4.9 0 0 -0.38c0.53,-0.08 0.97,-0.3 1.3,-0.66 0.34,-0.36 0.77,-1.11 1.27,-2.25l5.27 -11.76 0.2 0 5.32 12.09c0.51,1.16 0.93,1.89 1.25,2.19 0.25,0.23 0.6,0.36 1.05,0.39l0 0.38 -7.13 0 0 -0.38 0.29 0c0.57,0 0.98,-0.08 1.21,-0.24 0.16,-0.12 0.23,-0.29 0.23,-0.5 0,-0.14 -0.01,-0.28 -0.06,-0.42 -0.01,-0.06 -0.12,-0.34 -0.33,-0.82l-0.8 -1.85zm-0.35 -0.8l-2.2 -5.03 -2.25 5.03 4.45 0zm14.36 -5.43l0.16 3.47 -0.38 0c-0.44,-1.03 -0.89,-1.73 -1.36,-2.11 -0.47,-0.37 -0.94,-0.56 -1.41,-0.56 -0.29,0 -0.54,0.1 -0.75,0.3 -0.21,0.2 -0.31,0.43 -0.31,0.69 0,0.19 0.07,0.38 0.21,0.56 0.23,0.3 0.88,0.8 1.94,1.52 1.06,0.72 1.75,1.34 2.09,1.84 0.33,0.5 0.5,1.06 0.5,1.68 0,0.57 -0.14,1.12 -0.42,1.66 -0.28,0.54 -0.68,0.96 -1.19,1.25 -0.51,0.29 -1.08,0.43 -1.7,0.43 -0.48,0 -1.12,-0.15 -1.93,-0.46 -0.22,-0.08 -0.36,-0.12 -0.45,-0.12 -0.23,0 -0.43,0.19 -0.59,0.56l-0.38 0 -0.18 -3.65 0.38 0c0.33,0.95 0.77,1.66 1.34,2.14 0.56,0.47 1.1,0.71 1.6,0.71 0.35,0 0.63,-0.11 0.85,-0.32 0.22,-0.22 0.33,-0.47 0.33,-0.78 0,-0.34 -0.1,-0.64 -0.32,-0.9 -0.22,-0.25 -0.7,-0.63 -1.45,-1.14 -1.11,-0.77 -1.82,-1.36 -2.15,-1.76 -0.47,-0.59 -0.71,-1.25 -0.71,-1.96 0,-0.79 0.27,-1.49 0.81,-2.12 0.53,-0.64 1.31,-0.95 2.33,-0.95 0.55,0 1.08,0.13 1.59,0.41 0.2,0.11 0.36,0.16 0.48,0.16 0.13,0 0.24,-0.02 0.31,-0.08 0.08,-0.06 0.21,-0.21 0.38,-0.47l0.38 0zm7.05 -0.02c0.88,0 1.7,0.22 2.46,0.68 0.76,0.46 1.34,1.11 1.73,1.94 0.39,0.84 0.59,1.76 0.59,2.76 0,1.44 -0.36,2.64 -1.09,3.61 -0.89,1.18 -2.1,1.76 -3.66,1.76 -1.52,0 -2.7,-0.53 -3.52,-1.6 -0.83,-1.07 -1.24,-2.32 -1.24,-3.73 0,-1.45 0.42,-2.72 1.26,-3.8 0.85,-1.08 2,-1.62 3.47,-1.62zm0.05 0.75c-0.37,0 -0.68,0.14 -0.95,0.42 -0.26,0.28 -0.44,0.83 -0.52,1.65 -0.08,0.82 -0.12,1.96 -0.12,3.43 0,0.77 0.05,1.5 0.15,2.17 0.08,0.51 0.25,0.91 0.51,1.18 0.26,0.26 0.55,0.4 0.88,0.4 0.33,0 0.6,-0.09 0.82,-0.28 0.28,-0.24 0.46,-0.59 0.56,-1.03 0.15,-0.68 0.22,-2.08 0.22,-4.17 0,-1.23 -0.07,-2.07 -0.21,-2.53 -0.14,-0.46 -0.34,-0.8 -0.61,-1.01 -0.18,-0.15 -0.43,-0.23 -0.73,-0.23zm14.57 7.07l0.34 0.26c-0.48,0.91 -1.08,1.57 -1.79,2.01 -0.72,0.44 -1.48,0.66 -2.29,0.66 -1.36,0 -2.44,-0.51 -3.25,-1.53 -0.81,-1.02 -1.22,-2.25 -1.22,-3.68 0,-1.38 0.37,-2.6 1.11,-3.64 0.89,-1.27 2.12,-1.9 3.69,-1.9 1.05,0 1.89,0.26 2.51,0.79 0.62,0.53 0.93,1.12 0.93,1.77 0,0.41 -0.13,0.74 -0.38,0.99 -0.25,0.24 -0.58,0.37 -0.98,0.37 -0.43,0 -0.78,-0.15 -1.06,-0.43 -0.28,-0.28 -0.46,-0.78 -0.52,-1.51 -0.04,-0.45 -0.15,-0.77 -0.32,-0.96 -0.16,-0.18 -0.36,-0.27 -0.58,-0.27 -0.35,0 -0.65,0.19 -0.9,0.56 -0.37,0.55 -0.56,1.41 -0.56,2.55 0,0.96 0.15,1.87 0.45,2.74 0.31,0.88 0.73,1.52 1.26,1.95 0.4,0.31 0.87,0.47 1.42,0.47 0.35,0 0.69,-0.09 1.01,-0.25 0.32,-0.17 0.7,-0.48 1.13,-0.95zm4.04 -12.46c0.47,0 0.87,0.17 1.2,0.5 0.32,0.33 0.49,0.72 0.49,1.19 0,0.47 -0.17,0.86 -0.5,1.19 -0.33,0.32 -0.73,0.49 -1.19,0.49 -0.47,0 -0.86,-0.17 -1.19,-0.49 -0.32,-0.33 -0.49,-0.72 -0.49,-1.19 0,-0.47 0.17,-0.86 0.49,-1.19 0.33,-0.33 0.72,-0.5 1.19,-0.5zm1.53 4.93l0 8.06c0,0.72 0.08,1.19 0.25,1.39 0.17,0.2 0.5,0.32 1,0.34l0 0.38 -5.55 0 0 -0.38c0.46,-0.01 0.8,-0.14 1.03,-0.39 0.14,-0.17 0.22,-0.62 0.22,-1.34l0 -5.95c0,-0.73 -0.09,-1.19 -0.26,-1.39 -0.17,-0.2 -0.5,-0.32 -0.99,-0.35l0 -0.37 4.3 0zm7.84 8.66c-1.24,1.1 -2.36,1.65 -3.35,1.65 -0.58,0 -1.06,-0.19 -1.45,-0.57 -0.38,-0.38 -0.57,-0.86 -0.57,-1.43 0,-0.78 0.33,-1.48 1,-2.1 0.67,-0.62 2.12,-1.44 4.37,-2.47l0 -1.02c0,-0.76 -0.05,-1.25 -0.13,-1.45 -0.08,-0.19 -0.24,-0.37 -0.48,-0.52 -0.23,-0.15 -0.49,-0.22 -0.78,-0.22 -0.48,0 -0.87,0.1 -1.17,0.32 -0.19,0.13 -0.28,0.28 -0.28,0.45 0,0.15 0.1,0.34 0.3,0.57 0.27,0.31 0.41,0.61 0.41,0.9 0,0.35 -0.13,0.66 -0.4,0.9 -0.26,0.25 -0.6,0.38 -1.03,0.38 -0.46,0 -0.84,-0.14 -1.15,-0.41 -0.31,-0.28 -0.46,-0.6 -0.46,-0.97 0,-0.52 0.21,-1.02 0.62,-1.49 0.41,-0.48 0.99,-0.84 1.73,-1.1 0.74,-0.25 1.51,-0.37 2.31,-0.37 0.96,0 1.73,0.2 2.29,0.61 0.56,0.41 0.93,0.85 1.09,1.33 0.1,0.3 0.15,1 0.15,2.09l0 3.94c0,0.46 0.02,0.75 0.06,0.87 0.04,0.12 0.09,0.21 0.16,0.27 0.08,0.05 0.16,0.08 0.25,0.08 0.2,0 0.39,-0.13 0.59,-0.39l0.33 0.26c-0.37,0.54 -0.74,0.93 -1.13,1.17 -0.39,0.24 -0.83,0.37 -1.32,0.37 -0.58,0 -1.04,-0.14 -1.37,-0.41 -0.32,-0.28 -0.52,-0.69 -0.59,-1.24zm0 -0.8l0 -3.39c-0.88,0.52 -1.53,1.07 -1.96,1.65 -0.29,0.39 -0.43,0.79 -0.43,1.19 0,0.33 0.12,0.63 0.36,0.88 0.18,0.19 0.44,0.29 0.76,0.29 0.37,0 0.79,-0.21 1.27,-0.62zm15.39 -12.45l0 11.71c0,0.79 0.02,1.25 0.06,1.39 0.06,0.24 0.17,0.42 0.33,0.54 0.16,0.11 0.45,0.18 0.85,0.21l0 0.38 -4.3 0.82 0 -1.61c-0.51,0.63 -0.96,1.05 -1.37,1.28 -0.4,0.22 -0.85,0.33 -1.35,0.33 -1.3,0 -2.32,-0.58 -3.07,-1.73 -0.61,-0.94 -0.91,-2.1 -0.91,-3.47 0,-1.09 0.19,-2.07 0.56,-2.93 0.38,-0.87 0.89,-1.52 1.55,-1.96 0.65,-0.45 1.35,-0.66 2.1,-0.66 0.49,0 0.92,0.09 1.29,0.28 0.38,0.19 0.78,0.51 1.2,0.99l0 -3.1c0,-0.77 -0.03,-1.23 -0.09,-1.39 -0.09,-0.21 -0.22,-0.36 -0.4,-0.46 -0.17,-0.1 -0.5,-0.15 -0.98,-0.15l0 -0.47 4.53 0zm-3.06 6.9c-0.53,-1.02 -1.18,-1.54 -1.95,-1.54 -0.27,0 -0.48,0.08 -0.66,0.22 -0.26,0.23 -0.48,0.62 -0.65,1.18 -0.17,0.57 -0.26,1.43 -0.26,2.6 0,1.28 0.1,2.22 0.29,2.84 0.18,0.61 0.44,1.06 0.76,1.33 0.17,0.14 0.4,0.21 0.68,0.21 0.64,0 1.23,-0.5 1.79,-1.5l0 -5.34zm10.37 -2.6c0.88,0 1.7,0.22 2.46,0.68 0.76,0.46 1.34,1.11 1.73,1.94 0.4,0.84 0.59,1.76 0.59,2.76 0,1.44 -0.36,2.64 -1.09,3.61 -0.89,1.18 -2.1,1.76 -3.66,1.76 -1.52,0 -2.7,-0.53 -3.52,-1.6 -0.83,-1.07 -1.24,-2.32 -1.24,-3.73 0,-1.45 0.42,-2.72 1.26,-3.8 0.85,-1.08 2,-1.62 3.47,-1.62zm0.05 0.75c-0.37,0 -0.68,0.14 -0.95,0.42 -0.26,0.28 -0.43,0.83 -0.52,1.65 -0.08,0.82 -0.12,1.96 -0.12,3.43 0,0.77 0.05,1.5 0.15,2.17 0.08,0.51 0.25,0.91 0.51,1.18 0.26,0.26 0.55,0.4 0.89,0.4 0.32,0 0.59,-0.09 0.81,-0.28 0.28,-0.24 0.47,-0.59 0.56,-1.03 0.15,-0.68 0.22,-2.08 0.22,-4.17 0,-1.23 -0.07,-2.07 -0.21,-2.53 -0.13,-0.46 -0.34,-0.8 -0.61,-1.01 -0.18,-0.15 -0.43,-0.23 -0.73,-0.23zm12.71 -0.73l0.15 3.47 -0.38 0c-0.44,-1.03 -0.89,-1.73 -1.36,-2.11 -0.47,-0.37 -0.93,-0.56 -1.4,-0.56 -0.3,0 -0.55,0.1 -0.76,0.3 -0.2,0.2 -0.31,0.43 -0.31,0.69 0,0.19 0.07,0.38 0.22,0.56 0.23,0.3 0.87,0.8 1.93,1.52 1.06,0.72 1.76,1.34 2.09,1.84 0.34,0.5 0.51,1.06 0.51,1.68 0,0.57 -0.14,1.12 -0.43,1.66 -0.28,0.54 -0.67,0.96 -1.18,1.25 -0.52,0.29 -1.08,0.43 -1.7,0.43 -0.48,0 -1.13,-0.15 -1.94,-0.46 -0.21,-0.08 -0.36,-0.12 -0.44,-0.12 -0.24,0 -0.43,0.19 -0.59,0.56l-0.38 0 -0.18 -3.65 0.38 0c0.32,0.95 0.77,1.66 1.33,2.14 0.57,0.47 1.1,0.71 1.61,0.71 0.35,0 0.63,-0.11 0.85,-0.32 0.22,-0.22 0.33,-0.47 0.33,-0.78 0,-0.34 -0.11,-0.64 -0.33,-0.9 -0.21,-0.25 -0.7,-0.63 -1.45,-1.14 -1.1,-0.77 -1.82,-1.36 -2.14,-1.76 -0.48,-0.59 -0.71,-1.25 -0.71,-1.96 0,-0.79 0.26,-1.49 0.8,-2.12 0.54,-0.64 1.32,-0.95 2.34,-0.95 0.54,0 1.08,0.13 1.59,0.41 0.19,0.11 0.35,0.16 0.47,0.16 0.13,0 0.24,-0.02 0.32,-0.08 0.08,-0.06 0.2,-0.21 0.38,-0.47l0.38 0z"/>
   <path class="fil2 str0" d="M152.78 31.4c0.29,0 0.51,-0.07 0.66,-0.23 0.15,-0.15 0.23,-0.34 0.23,-0.58 0,-0.22 0.05,-0.39 0.14,-0.52 0.1,-0.12 0.21,-0.19 0.34,-0.19 0.13,0 0.24,0.06 0.33,0.18 0.09,0.12 0.13,0.28 0.13,0.48 0,0.2 0.01,0.42 0.03,0.65 0.02,0.23 0.03,0.39 0.03,0.47 0,0.24 -0.04,0.39 -0.1,0.46 -0.07,0.07 -0.24,0.11 -0.51,0.11l-6.91 0c-0.48,0 -0.82,-0.04 -1,-0.11 -0.17,-0.08 -0.27,-0.19 -0.27,-0.33 0,-0.23 0.17,-0.35 0.49,-0.35 0.42,0 0.69,-0.07 0.82,-0.2 0.12,-0.13 0.18,-0.35 0.18,-0.63l0 -7.8c0,-0.84 -0.01,-1.39 -0.04,-1.66 -0.03,-0.28 -0.1,-0.45 -0.21,-0.53 -0.12,-0.08 -0.34,-0.11 -0.68,-0.11 -0.21,0 -0.37,-0.04 -0.48,-0.12 -0.11,-0.08 -0.16,-0.18 -0.16,-0.3 0,-0.11 0.05,-0.21 0.14,-0.3 0.1,-0.08 0.22,-0.12 0.37,-0.12l6.57 0c0.26,0 0.43,0.05 0.51,0.16 0.07,0.11 0.13,0.27 0.17,0.48 0.04,0.21 0.06,0.55 0.06,1.04 0,0.22 -0.1,0.33 -0.29,0.33 -0.11,0 -0.2,-0.03 -0.29,-0.1 -0.08,-0.07 -0.17,-0.23 -0.27,-0.5 -0.1,-0.27 -0.21,-0.44 -0.31,-0.51 -0.11,-0.08 -0.23,-0.12 -0.36,-0.12l-2.34 0c-0.4,0 -0.64,0.06 -0.75,0.17 -0.1,0.11 -0.15,0.28 -0.15,0.5l0 1.8c0,0.42 0.06,0.7 0.17,0.83 0.11,0.14 0.35,0.2 0.69,0.2l2.29 0c0.19,0 0.33,-0.07 0.43,-0.22 0.09,-0.16 0.14,-0.33 0.14,-0.52 0,-0.09 0.05,-0.18 0.12,-0.24 0.08,-0.07 0.18,-0.1 0.28,-0.1 0.11,0 0.21,0.04 0.28,0.11 0.07,0.07 0.11,0.18 0.11,0.31 0,0.12 -0.02,0.3 -0.05,0.52 -0.04,0.22 -0.06,0.41 -0.06,0.55 0,0.22 0.02,0.44 0.07,0.68 0.05,0.24 0.08,0.38 0.08,0.44 0,0.13 -0.05,0.24 -0.13,0.32 -0.09,0.09 -0.19,0.13 -0.3,0.13 -0.12,0 -0.21,-0.05 -0.29,-0.16 -0.08,-0.1 -0.12,-0.25 -0.12,-0.43 0,-0.22 -0.06,-0.37 -0.18,-0.46 -0.11,-0.09 -0.3,-0.14 -0.56,-0.14l-2.27 0c-0.2,0 -0.37,0.04 -0.5,0.13 -0.13,0.08 -0.2,0.2 -0.2,0.36l0 5.46c0,0.28 0.07,0.47 0.22,0.57 0.14,0.09 0.39,0.14 0.75,0.14l2.95 0zm3.74 -4.18c0,0.13 0.06,0.27 0.19,0.4 0.12,0.14 0.51,0.38 1.17,0.73 0.66,0.34 1.11,0.68 1.34,1.02 0.23,0.33 0.35,0.68 0.35,1.05 0,0.58 -0.25,1.04 -0.73,1.38 -0.48,0.34 -1.1,0.51 -1.86,0.51 -0.43,0 -0.84,-0.09 -1.26,-0.28 -0.42,-0.18 -0.63,-0.37 -0.63,-0.56 0,-0.15 -0.01,-0.34 -0.04,-0.57 -0.02,-0.22 -0.03,-0.41 -0.03,-0.54 0,-0.29 0.13,-0.43 0.39,-0.43 0.08,0 0.15,0.04 0.21,0.1 0.07,0.06 0.17,0.27 0.3,0.62 0.14,0.36 0.3,0.6 0.5,0.73 0.19,0.13 0.41,0.2 0.65,0.2 0.3,0 0.56,-0.1 0.76,-0.3 0.21,-0.2 0.32,-0.45 0.32,-0.77 0,-0.2 -0.07,-0.39 -0.21,-0.57 -0.15,-0.18 -0.53,-0.42 -1.17,-0.72 -0.63,-0.3 -1.05,-0.59 -1.24,-0.88 -0.19,-0.29 -0.28,-0.6 -0.28,-0.93 0,-0.44 0.2,-0.82 0.61,-1.12 0.42,-0.3 0.9,-0.45 1.44,-0.45 0.46,0 0.91,0.08 1.34,0.24 0.43,0.16 0.65,0.33 0.65,0.51 0,0.11 0.01,0.25 0.03,0.41 0.02,0.16 0.04,0.28 0.04,0.38 0,0.12 -0.03,0.23 -0.09,0.32 -0.07,0.09 -0.14,0.14 -0.23,0.14 -0.14,0 -0.23,-0.04 -0.28,-0.1 -0.06,-0.07 -0.11,-0.19 -0.15,-0.36 -0.05,-0.17 -0.12,-0.3 -0.22,-0.4 -0.11,-0.09 -0.24,-0.18 -0.41,-0.26 -0.17,-0.09 -0.36,-0.13 -0.57,-0.13 -0.21,0 -0.41,0.07 -0.6,0.21 -0.19,0.13 -0.29,0.27 -0.29,0.42zm6.34 2.94c0,0.48 0.02,0.79 0.06,0.92 0.05,0.13 0.13,0.2 0.25,0.2 0.18,0 0.4,-0.1 0.67,-0.3 0.27,-0.21 0.45,-0.31 0.54,-0.31 0.08,0 0.15,0.03 0.21,0.1 0.06,0.07 0.09,0.16 0.09,0.25 0,0.16 -0.23,0.43 -0.67,0.79 -0.45,0.36 -0.84,0.54 -1.18,0.54 -0.91,0 -1.35,-0.66 -1.35,-1.97l0 -3.28c0,-0.11 -0.02,-0.17 -0.05,-0.18 -0.02,-0.01 -0.18,-0.01 -0.48,-0.01 -0.22,0 -0.38,-0.04 -0.46,-0.1 -0.08,-0.07 -0.12,-0.17 -0.12,-0.29 0,-0.12 0.03,-0.19 0.09,-0.24 0.06,-0.05 0.18,-0.09 0.35,-0.14 0.18,-0.05 0.31,-0.11 0.4,-0.17 0.1,-0.07 0.23,-0.21 0.4,-0.41 0.16,-0.21 0.28,-0.51 0.35,-0.88 0.08,-0.37 0.11,-0.92 0.11,-1.62 0,-0.34 0.09,-0.51 0.28,-0.51 0.21,0 0.34,0.05 0.39,0.14 0.06,0.1 0.08,0.26 0.08,0.48l0 2.85c0,0.11 0.08,0.17 0.22,0.17l1.22 0c0.24,0 0.36,0.11 0.36,0.33 0,0.25 -0.17,0.37 -0.52,0.37l-1.07 0c-0.08,0 -0.13,0.01 -0.15,0.04 -0.01,0.03 -0.02,0.09 -0.02,0.19l0 3.04zm7.92 -2.47c0,-0.41 -0.22,-0.65 -0.67,-0.71 -0.27,-0.04 -0.44,-0.09 -0.51,-0.15 -0.06,-0.06 -0.1,-0.14 -0.1,-0.23 0,-0.21 0.17,-0.32 0.49,-0.32 0.09,0 0.26,0.03 0.52,0.08 0.26,0.06 0.54,0.09 0.84,0.09 0.08,0 0.18,-0.01 0.3,-0.03 0.12,-0.02 0.2,-0.04 0.22,-0.04 0.16,0 0.24,0.18 0.24,0.53 0,2.63 0.02,4.02 0.07,4.19 0.04,0.17 0.27,0.31 0.69,0.41 0.22,0.06 0.35,0.11 0.4,0.16 0.05,0.04 0.08,0.1 0.08,0.16 0,0.08 -0.05,0.15 -0.14,0.21 -0.1,0.07 -0.22,0.1 -0.37,0.1 -0.06,0 -0.22,-0.02 -0.46,-0.06 -0.25,-0.04 -0.42,-0.06 -0.53,-0.06 -0.11,0 -0.24,0.02 -0.39,0.06 -0.16,0.04 -0.26,0.06 -0.31,0.06 -0.13,0 -0.21,-0.04 -0.26,-0.1 -0.04,-0.07 -0.08,-0.24 -0.09,-0.51 -0.02,-0.27 -0.02,-0.78 -0.02,-1.55l0 -2.29zm-2.8 2.9c0,0.28 0.1,0.51 0.32,0.7 0.21,0.18 0.46,0.27 0.75,0.27 0.18,0 0.39,-0.07 0.64,-0.22 0.24,-0.14 0.42,-0.22 0.53,-0.22 0.12,0 0.17,0.07 0.17,0.21 0,0.17 -0.21,0.37 -0.63,0.62 -0.42,0.24 -0.9,0.36 -1.43,0.36 -0.42,0 -0.78,-0.12 -1.09,-0.38 -0.31,-0.26 -0.49,-0.54 -0.53,-0.86 -0.05,-0.31 -0.08,-1.48 -0.08,-3.51 0,-0.28 -0.28,-0.47 -0.84,-0.6 -0.24,-0.05 -0.36,-0.14 -0.36,-0.28 0,-0.09 0.03,-0.17 0.11,-0.22 0.08,-0.05 0.17,-0.08 0.29,-0.08 0.03,0 0.2,0.03 0.5,0.07 0.3,0.05 0.56,0.07 0.76,0.07 0.08,0 0.19,-0.02 0.34,-0.07 0.14,-0.04 0.23,-0.07 0.27,-0.07 0.19,0 0.28,0.39 0.28,1.17l0 3.04zm12.94 -0.41c0,0.28 0.06,0.53 0.17,0.76 0.12,0.23 0.32,0.4 0.62,0.5 0.29,0.1 0.46,0.18 0.51,0.23 0.04,0.04 0.07,0.09 0.07,0.15 0,0.25 -0.14,0.37 -0.4,0.37 -0.09,0 -0.21,-0.02 -0.36,-0.07 -0.15,-0.05 -0.36,-0.07 -0.6,-0.07 -0.17,0 -0.35,0.02 -0.55,0.07 -0.19,0.05 -0.32,0.07 -0.37,0.07 -0.11,0 -0.2,-0.04 -0.27,-0.12 -0.08,-0.08 -0.12,-0.16 -0.13,-0.25 -0.01,-0.08 -0.02,-0.13 -0.05,-0.13l-0.14 0.06c-0.86,0.49 -1.59,0.74 -2.18,0.74 -0.84,0 -1.6,-0.32 -2.27,-0.97 -0.68,-0.64 -1.01,-1.38 -1.01,-2.21 0,-0.95 0.34,-1.74 1.02,-2.35 0.68,-0.62 1.47,-0.93 2.38,-0.93 0.38,0 0.77,0.1 1.17,0.29 0.41,0.19 0.61,0.39 0.61,0.62 0,0.08 -0.03,0.14 -0.08,0.19 -0.06,0.05 -0.12,0.08 -0.19,0.08 -0.08,0 -0.28,-0.07 -0.59,-0.21 -0.31,-0.14 -0.59,-0.21 -0.85,-0.21 -0.58,0 -1.06,0.24 -1.46,0.72 -0.4,0.48 -0.59,1.05 -0.59,1.71 0,0.57 0.18,1.13 0.54,1.69 0.36,0.55 0.85,0.83 1.47,0.83 0.34,0 0.72,-0.1 1.16,-0.28 0.43,-0.19 0.71,-0.43 0.83,-0.75 0.12,-0.32 0.18,-0.8 0.18,-1.44l0 -7.34c0,-0.47 -0.08,-0.8 -0.24,-0.98 -0.16,-0.18 -0.39,-0.32 -0.7,-0.41 -0.3,-0.09 -0.48,-0.16 -0.55,-0.21 -0.07,-0.04 -0.11,-0.12 -0.11,-0.23 0,-0.07 0.05,-0.14 0.13,-0.19 0.09,-0.06 0.21,-0.09 0.36,-0.09 0.07,0 0.2,0.02 0.41,0.05 0.2,0.03 0.37,0.04 0.5,0.04 0.26,0 0.49,-0.01 0.68,-0.03 0.19,-0.03 0.31,-0.04 0.35,-0.04 0.2,0 0.34,0.06 0.41,0.18 0.07,0.11 0.1,0.27 0.1,0.48 0,0.38 0.01,0.68 0.01,0.9 0.01,0.23 0.01,0.44 0.01,0.61l0 8.17zm3.72 -6.87c0.25,0 0.48,0.09 0.67,0.28 0.19,0.19 0.28,0.41 0.28,0.67 0,0.23 -0.09,0.43 -0.28,0.59 -0.19,0.16 -0.4,0.24 -0.66,0.24 -0.25,0 -0.47,-0.09 -0.66,-0.27 -0.18,-0.17 -0.27,-0.39 -0.27,-0.63 0,-0.24 0.09,-0.45 0.27,-0.62 0.19,-0.18 0.4,-0.26 0.65,-0.26zm0.71 7.39c0,0.28 0.05,0.47 0.15,0.55 0.1,0.09 0.24,0.14 0.41,0.17 0.17,0.03 0.29,0.06 0.36,0.11 0.07,0.04 0.11,0.14 0.11,0.29 0,0.19 -0.17,0.28 -0.5,0.28 -0.14,0 -0.36,-0.01 -0.64,-0.04 -0.29,-0.03 -0.5,-0.04 -0.64,-0.04 -0.13,0 -0.33,0.02 -0.59,0.06 -0.27,0.04 -0.47,0.06 -0.6,0.06 -0.13,0 -0.24,-0.04 -0.33,-0.11 -0.1,-0.08 -0.15,-0.18 -0.15,-0.3 0,-0.07 0.03,-0.14 0.08,-0.19 0.05,-0.06 0.18,-0.1 0.39,-0.14 0.21,-0.03 0.36,-0.1 0.44,-0.2 0.08,-0.1 0.12,-0.35 0.12,-0.74l0 -2.9c0,-0.24 -0.05,-0.4 -0.15,-0.48 -0.1,-0.08 -0.25,-0.14 -0.45,-0.18 -0.2,-0.04 -0.33,-0.09 -0.37,-0.16 -0.05,-0.06 -0.07,-0.14 -0.07,-0.23 0,-0.1 0.04,-0.19 0.12,-0.25 0.08,-0.07 0.18,-0.1 0.29,-0.1 0.1,0 0.24,0.02 0.42,0.07 0.18,0.04 0.32,0.07 0.4,0.07 0.1,0 0.25,-0.02 0.45,-0.06 0.2,-0.03 0.35,-0.05 0.45,-0.05 0.21,0 0.31,0.18 0.31,0.53 0,0.06 0,0.13 0,0.23 -0.01,0.09 -0.01,0.16 -0.01,0.19l0 3.56zm5.45 -4.82c0.95,0 1.77,0.32 2.48,0.97 0.7,0.65 1.05,1.4 1.05,2.25 0,0.95 -0.33,1.72 -1,2.32 -0.68,0.59 -1.58,0.89 -2.7,0.89 -0.89,0 -1.69,-0.3 -2.4,-0.91 -0.71,-0.61 -1.07,-1.37 -1.07,-2.27 0,-0.87 0.31,-1.62 0.94,-2.28 0.62,-0.65 1.52,-0.97 2.7,-0.97zm0.01 5.68c0.66,0 1.18,-0.23 1.57,-0.71 0.39,-0.47 0.59,-1.07 0.59,-1.79 0,-0.71 -0.21,-1.29 -0.63,-1.75 -0.42,-0.45 -0.95,-0.68 -1.6,-0.68 -0.66,0 -1.18,0.22 -1.54,0.67 -0.37,0.45 -0.55,1.02 -0.55,1.73 0,0.78 0.2,1.39 0.61,1.85 0.4,0.45 0.92,0.68 1.55,0.68zm13.76 -1.38c0,0.28 0.06,0.53 0.17,0.76 0.12,0.23 0.32,0.4 0.61,0.5 0.3,0.1 0.47,0.18 0.52,0.23 0.04,0.04 0.06,0.09 0.06,0.15 0,0.25 -0.13,0.37 -0.39,0.37 -0.09,0 -0.21,-0.02 -0.36,-0.07 -0.16,-0.05 -0.36,-0.07 -0.6,-0.07 -0.17,0 -0.35,0.02 -0.55,0.07 -0.19,0.05 -0.32,0.07 -0.37,0.07 -0.11,0 -0.2,-0.04 -0.27,-0.12 -0.08,-0.08 -0.12,-0.16 -0.13,-0.25 -0.01,-0.08 -0.03,-0.13 -0.05,-0.13l-0.14 0.06c-0.86,0.49 -1.59,0.74 -2.18,0.74 -0.84,0 -1.6,-0.32 -2.27,-0.97 -0.68,-0.64 -1.01,-1.38 -1.01,-2.21 0,-0.95 0.34,-1.74 1.02,-2.35 0.68,-0.62 1.47,-0.93 2.38,-0.93 0.38,0 0.77,0.1 1.17,0.29 0.4,0.19 0.61,0.39 0.61,0.62 0,0.08 -0.03,0.14 -0.09,0.19 -0.05,0.05 -0.11,0.08 -0.18,0.08 -0.08,0 -0.28,-0.07 -0.59,-0.21 -0.31,-0.14 -0.59,-0.21 -0.86,-0.21 -0.57,0 -1.05,0.24 -1.45,0.72 -0.4,0.48 -0.59,1.05 -0.59,1.71 0,0.57 0.18,1.13 0.53,1.69 0.37,0.55 0.86,0.83 1.48,0.83 0.34,0 0.72,-0.1 1.16,-0.28 0.43,-0.19 0.71,-0.43 0.83,-0.75 0.12,-0.32 0.18,-0.8 0.18,-1.44l0 -7.34c0,-0.47 -0.08,-0.8 -0.24,-0.98 -0.16,-0.18 -0.39,-0.32 -0.7,-0.41 -0.3,-0.09 -0.48,-0.16 -0.55,-0.21 -0.07,-0.04 -0.11,-0.12 -0.11,-0.23 0,-0.07 0.05,-0.14 0.13,-0.19 0.09,-0.06 0.21,-0.09 0.36,-0.09 0.07,0 0.2,0.02 0.41,0.05 0.2,0.03 0.37,0.04 0.5,0.04 0.26,0 0.49,-0.01 0.68,-0.03 0.19,-0.03 0.31,-0.04 0.35,-0.04 0.2,0 0.34,0.06 0.41,0.18 0.07,0.11 0.1,0.27 0.1,0.48 0,0.38 0.01,0.68 0.01,0.9 0.01,0.23 0.01,0.44 0.01,0.61l0 8.17zm7.12 -1.49c0.13,0 0.22,-0.02 0.26,-0.06 0.05,-0.05 0.07,-0.13 0.07,-0.25 0,-0.43 -0.17,-0.83 -0.51,-1.21 -0.34,-0.37 -0.85,-0.56 -1.53,-0.56 -0.48,0 -0.96,0.23 -1.47,0.67 -0.5,0.45 -0.76,1.09 -0.76,1.91 0,0.6 0.27,1.14 0.8,1.62 0.53,0.48 1.13,0.72 1.79,0.72 0.49,0 1.03,-0.16 1.61,-0.47 0.23,-0.12 0.37,-0.18 0.44,-0.18 0.1,0 0.18,0.03 0.24,0.09 0.06,0.05 0.09,0.13 0.09,0.21 0,0.21 -0.31,0.46 -0.94,0.76 -0.63,0.29 -1.28,0.44 -1.95,0.44 -0.98,0 -1.81,-0.33 -2.48,-1.01 -0.68,-0.67 -1.01,-1.46 -1.01,-2.39 0,-0.85 0.37,-1.58 1.1,-2.18 0.74,-0.61 1.57,-0.91 2.49,-0.91 1.19,0 2.08,0.31 2.67,0.92 0.59,0.61 0.89,1.33 0.89,2.18 0,0.18 -0.05,0.29 -0.14,0.34 -0.09,0.04 -0.25,0.06 -0.5,0.06l-3.9 0c-0.32,0 -0.48,-0.12 -0.48,-0.36 0,-0.22 0.17,-0.34 0.5,-0.34l2.72 0zm11.09 -5.9c-0.11,-0.26 -0.2,-0.39 -0.26,-0.39 -0.07,0 -0.17,0.18 -0.31,0.54l-1.82 4.16 -1.58 3.51c-0.05,0.1 -0.07,0.2 -0.07,0.28 0,0.08 0.04,0.16 0.1,0.23 0.07,0.06 0.22,0.13 0.47,0.2 0.24,0.07 0.39,0.14 0.46,0.21 0.06,0.06 0.09,0.14 0.09,0.23 0,0.27 -0.17,0.4 -0.51,0.4 -0.08,0 -0.27,-0.03 -0.58,-0.07 -0.31,-0.05 -0.57,-0.07 -0.77,-0.07 -0.21,0 -0.43,0.02 -0.65,0.06 -0.22,0.04 -0.38,0.06 -0.49,0.06 -0.14,0 -0.25,-0.04 -0.34,-0.11 -0.09,-0.07 -0.14,-0.16 -0.14,-0.26 0,-0.15 0.03,-0.25 0.08,-0.3 0.06,-0.04 0.16,-0.08 0.32,-0.1 0.44,-0.07 0.74,-0.24 0.91,-0.5 0.16,-0.26 0.59,-1.17 1.29,-2.75l2.06 -4.6c0.51,-1.11 0.84,-1.84 0.98,-2.2 0.15,-0.36 0.22,-0.64 0.22,-0.84 0,-0.07 -0.03,-0.19 -0.08,-0.37 -0.05,-0.18 -0.07,-0.31 -0.07,-0.39 0,-0.16 0.09,-0.25 0.26,-0.25 0.29,0 0.53,0.13 0.7,0.37 0.18,0.25 0.42,0.71 0.71,1.39l2.37 5.35c0.86,1.95 1.4,3.15 1.63,3.61 0.23,0.46 0.41,0.76 0.56,0.9 0.15,0.13 0.32,0.23 0.53,0.29 0.2,0.06 0.34,0.12 0.42,0.18 0.07,0.05 0.11,0.15 0.11,0.28 0,0.22 -0.18,0.33 -0.54,0.33 -0.13,0 -0.34,-0.02 -0.66,-0.06 -0.32,-0.04 -0.63,-0.06 -0.95,-0.06 -0.31,0 -0.64,0.02 -0.98,0.07 -0.34,0.05 -0.57,0.07 -0.7,0.07 -0.19,0 -0.35,-0.03 -0.46,-0.1 -0.12,-0.07 -0.17,-0.16 -0.17,-0.27 0,-0.1 0.03,-0.19 0.1,-0.25 0.07,-0.06 0.25,-0.11 0.56,-0.14 0.3,-0.03 0.49,-0.09 0.58,-0.19 0.09,-0.1 0.14,-0.22 0.14,-0.37 0,-0.16 -0.17,-0.6 -0.49,-1.31 -0.32,-0.72 -0.53,-1.1 -0.61,-1.15 -0.07,-0.04 -0.23,-0.07 -0.46,-0.07l-3.81 0c-0.15,0 -0.28,-0.05 -0.4,-0.14 -0.12,-0.1 -0.18,-0.21 -0.18,-0.34 0,-0.1 0.05,-0.18 0.14,-0.26 0.09,-0.08 0.2,-0.11 0.32,-0.11l3.67 0c0.2,0 0.3,-0.04 0.3,-0.11 0,-0.05 -0.03,-0.16 -0.11,-0.34l-1.89 -4.25zm9.31 8.95c-0.03,0.03 -0.07,0.09 -0.1,0.17 -0.04,0.09 -0.08,0.15 -0.13,0.19 -0.04,0.04 -0.13,0.06 -0.26,0.06 -0.09,0 -0.24,-0.03 -0.45,-0.07 -0.21,-0.05 -0.37,-0.07 -0.49,-0.07 -0.12,0 -0.29,0.02 -0.51,0.07 -0.21,0.04 -0.37,0.07 -0.48,0.07 -0.13,0 -0.24,-0.04 -0.34,-0.11 -0.09,-0.06 -0.14,-0.15 -0.14,-0.27 0,-0.08 0.03,-0.14 0.08,-0.19 0.06,-0.05 0.26,-0.12 0.59,-0.18 0.34,-0.07 0.56,-0.2 0.69,-0.39 0.11,-0.2 0.18,-0.43 0.18,-0.69l0 -8.73c0,-0.47 -0.11,-0.8 -0.33,-0.99 -0.13,-0.11 -0.33,-0.18 -0.6,-0.22 -0.27,-0.04 -0.44,-0.09 -0.49,-0.16 -0.06,-0.07 -0.09,-0.15 -0.09,-0.24 0,-0.09 0.06,-0.17 0.17,-0.23 0.11,-0.06 0.22,-0.09 0.32,-0.09 0.11,0 0.28,0.02 0.5,0.07 0.22,0.04 0.39,0.07 0.5,0.07 0.1,0 0.24,-0.02 0.43,-0.06 0.19,-0.03 0.33,-0.05 0.42,-0.05 0.17,0 0.3,0.05 0.38,0.14 0.07,0.1 0.12,0.27 0.12,0.53l0 9.96c0,0.36 0.21,0.67 0.65,0.96 0.43,0.29 0.84,0.43 1.23,0.43 0.44,0 0.91,-0.19 1.4,-0.57 0.49,-0.38 0.74,-1 0.74,-1.88 0,-0.68 -0.2,-1.26 -0.59,-1.74 -0.39,-0.48 -0.9,-0.73 -1.52,-0.73 -0.24,0 -0.48,0.07 -0.74,0.2 -0.25,0.13 -0.41,0.19 -0.49,0.19 -0.07,0 -0.14,-0.03 -0.21,-0.09 -0.07,-0.06 -0.11,-0.12 -0.11,-0.17 0,-0.26 0.22,-0.48 0.66,-0.68 0.44,-0.19 0.82,-0.29 1.16,-0.29 0.93,0 1.7,0.34 2.32,1.01 0.62,0.67 0.94,1.49 0.94,2.45 0,0.89 -0.33,1.62 -0.98,2.19 -0.65,0.58 -1.43,0.86 -2.35,0.86 -0.47,0 -1.06,-0.19 -1.77,-0.58l-0.31 -0.15zm9.55 -5.86c0.95,0 1.77,0.32 2.48,0.97 0.7,0.65 1.05,1.4 1.05,2.25 0,0.95 -0.33,1.72 -1.01,2.32 -0.67,0.59 -1.57,0.89 -2.7,0.89 -0.89,0 -1.69,-0.3 -2.4,-0.91 -0.7,-0.61 -1.06,-1.37 -1.06,-2.27 0,-0.87 0.31,-1.62 0.94,-2.28 0.62,-0.65 1.52,-0.97 2.7,-0.97zm0.01 5.68c0.65,0 1.18,-0.23 1.57,-0.71 0.39,-0.47 0.59,-1.07 0.59,-1.79 0,-0.71 -0.21,-1.29 -0.63,-1.75 -0.42,-0.45 -0.96,-0.68 -1.6,-0.68 -0.66,0 -1.18,0.22 -1.55,0.67 -0.36,0.45 -0.54,1.02 -0.54,1.73 0,0.78 0.2,1.39 0.61,1.85 0.4,0.45 0.92,0.68 1.55,0.68zm9.79 -1.86l0.03 0.04c0.56,0.27 1.02,0.66 1.37,1.16 0.34,0.5 0.52,1.04 0.52,1.61 0,0.88 -0.4,1.6 -1.18,2.16 -0.79,0.56 -1.71,0.84 -2.78,0.84 -1.09,0 -2.02,-0.28 -2.78,-0.86 -0.77,-0.58 -1.15,-1.34 -1.15,-2.27 0,-0.55 0.18,-1.06 0.54,-1.54 0.36,-0.48 0.83,-0.84 1.42,-1.08l0.05 -0.06 -0.07 -0.09c-0.29,-0.18 -0.52,-0.41 -0.68,-0.69 -0.16,-0.29 -0.25,-0.61 -0.25,-0.94 0,-0.56 0.25,-1.01 0.73,-1.37 0.48,-0.36 1.09,-0.59 1.84,-0.68 0.09,-0.01 0.15,-0.06 0.19,-0.14 0.12,-0.27 0.32,-0.57 0.6,-0.89 0.28,-0.33 0.54,-0.52 0.76,-0.59 0.23,-0.06 0.62,-0.09 1.17,-0.09 0.33,0 0.49,0.16 0.49,0.49 0,0.2 -0.08,0.36 -0.24,0.48 -0.16,0.12 -0.37,0.18 -0.62,0.18 -0.05,0 -0.12,-0.01 -0.21,-0.03 -0.09,-0.01 -0.16,-0.02 -0.21,-0.02 -0.28,0 -0.51,0.08 -0.7,0.23 -0.19,0.15 -0.28,0.26 -0.28,0.31 0,0.06 0.03,0.09 0.11,0.09 0.68,0.08 1.22,0.32 1.63,0.71 0.4,0.38 0.6,0.87 0.6,1.45 0,0.62 -0.28,1.13 -0.84,1.52l-0.06 0.07zm-1.96 -0.16c0.44,0 0.81,-0.15 1.12,-0.45 0.31,-0.3 0.47,-0.67 0.47,-1.09 0,-0.23 -0.08,-0.46 -0.23,-0.69 -0.14,-0.22 -0.33,-0.39 -0.57,-0.5 -0.23,-0.11 -0.39,-0.16 -0.47,-0.16 -0.04,0 -0.06,0.02 -0.07,0.07 -0.07,0.26 -0.22,0.39 -0.44,0.39 -0.2,0 -0.3,-0.11 -0.3,-0.34 0,-0.06 -0.02,-0.09 -0.07,-0.09 -0.08,0 -0.22,0.05 -0.4,0.15 -0.19,0.1 -0.36,0.27 -0.49,0.5 -0.13,0.22 -0.2,0.48 -0.2,0.77 0,0.4 0.17,0.74 0.5,1.02 0.33,0.28 0.72,0.42 1.15,0.42zm-0.09 5.24c0.73,0 1.35,-0.21 1.85,-0.64 0.5,-0.42 0.75,-0.98 0.75,-1.67 0,-0.69 -0.24,-1.24 -0.73,-1.65 -0.49,-0.41 -1.11,-0.61 -1.86,-0.61 -0.81,0 -1.44,0.2 -1.89,0.61 -0.45,0.42 -0.68,0.98 -0.68,1.69 0,0.68 0.27,1.23 0.8,1.64 0.53,0.42 1.12,0.63 1.76,0.63z"/>
   <path class="fil2 str0" d="M260.34 30.6c0,0.41 0.27,0.7 0.82,0.86 0.14,0.04 0.24,0.08 0.3,0.14 0.07,0.05 0.1,0.15 0.1,0.29 0,0.08 -0.04,0.14 -0.13,0.2 -0.09,0.05 -0.18,0.08 -0.29,0.08 -0.11,0 -0.25,-0.02 -0.44,-0.07 -0.18,-0.06 -0.33,-0.08 -0.44,-0.08 -0.14,0 -0.3,0.02 -0.5,0.08 -0.2,0.05 -0.34,0.07 -0.4,0.07 -0.08,0 -0.16,-0.03 -0.24,-0.09 -0.07,-0.06 -0.12,-0.12 -0.12,-0.18 0,-0.1 -0.02,-0.15 -0.08,-0.15 -0.04,0 -0.09,0.02 -0.15,0.07 -0.65,0.4 -1.34,0.6 -2.09,0.6 -0.35,0 -0.75,-0.09 -1.18,-0.28 -0.44,-0.18 -0.79,-0.46 -1.05,-0.83 -0.26,-0.38 -0.39,-0.85 -0.39,-1.41 0,-0.59 0.28,-1.12 0.85,-1.57 0.56,-0.46 1.29,-0.69 2.18,-0.69 0.3,0 0.63,0.09 0.99,0.26 0.36,0.16 0.54,0.34 0.54,0.51 0,0.09 -0.04,0.16 -0.11,0.21 -0.07,0.05 -0.16,0.08 -0.27,0.08 -0.07,0 -0.22,-0.06 -0.44,-0.16 -0.22,-0.09 -0.44,-0.14 -0.67,-0.14 -0.46,0 -0.85,0.13 -1.16,0.41 -0.31,0.27 -0.46,0.64 -0.46,1.1 0,0.53 0.18,0.94 0.53,1.22 0.35,0.29 0.76,0.43 1.22,0.43 0.42,0 0.8,-0.14 1.15,-0.41 0.35,-0.27 0.53,-0.64 0.53,-1.09l0 -2.31c0,-0.35 -0.12,-0.63 -0.35,-0.85 -0.23,-0.22 -0.53,-0.32 -0.92,-0.32 -0.49,0 -0.97,0.15 -1.43,0.46 -0.16,0.11 -0.27,0.17 -0.33,0.17 -0.13,0 -0.25,-0.04 -0.34,-0.11 -0.1,-0.07 -0.15,-0.17 -0.15,-0.28 0,-0.28 0.26,-0.51 0.77,-0.71 0.51,-0.19 1.06,-0.29 1.66,-0.29 0.75,0 1.35,0.19 1.8,0.57 0.46,0.37 0.69,0.82 0.69,1.34l0 2.87zm8.71 -0.42c0,0.28 0.06,0.53 0.17,0.76 0.11,0.23 0.32,0.4 0.61,0.5 0.3,0.1 0.47,0.18 0.52,0.23 0.04,0.04 0.06,0.09 0.06,0.15 0,0.25 -0.13,0.37 -0.39,0.37 -0.09,0 -0.21,-0.02 -0.36,-0.07 -0.16,-0.05 -0.36,-0.07 -0.6,-0.07 -0.17,0 -0.35,0.02 -0.55,0.07 -0.2,0.05 -0.32,0.07 -0.37,0.07 -0.11,0 -0.2,-0.04 -0.28,-0.12 -0.07,-0.08 -0.11,-0.16 -0.12,-0.25 -0.01,-0.08 -0.03,-0.13 -0.06,-0.13l-0.13 0.06c-0.87,0.49 -1.59,0.74 -2.18,0.74 -0.84,0 -1.6,-0.32 -2.28,-0.97 -0.67,-0.64 -1,-1.38 -1,-2.21 0,-0.95 0.34,-1.74 1.02,-2.35 0.68,-0.62 1.47,-0.93 2.38,-0.93 0.37,0 0.77,0.1 1.17,0.29 0.4,0.19 0.6,0.39 0.6,0.62 0,0.08 -0.02,0.14 -0.08,0.19 -0.05,0.05 -0.11,0.08 -0.18,0.08 -0.09,0 -0.28,-0.07 -0.59,-0.21 -0.31,-0.14 -0.6,-0.21 -0.86,-0.21 -0.57,0 -1.06,0.24 -1.45,0.72 -0.4,0.48 -0.6,1.05 -0.6,1.71 0,0.57 0.18,1.13 0.54,1.69 0.36,0.55 0.86,0.83 1.48,0.83 0.34,0 0.72,-0.1 1.15,-0.28 0.44,-0.19 0.72,-0.43 0.84,-0.75 0.12,-0.32 0.17,-0.8 0.17,-1.44l0 -7.34c0,-0.47 -0.08,-0.8 -0.24,-0.98 -0.16,-0.18 -0.39,-0.32 -0.69,-0.41 -0.3,-0.09 -0.49,-0.16 -0.56,-0.21 -0.06,-0.04 -0.1,-0.12 -0.1,-0.23 0,-0.07 0.05,-0.14 0.13,-0.19 0.09,-0.06 0.21,-0.09 0.36,-0.09 0.07,0 0.2,0.02 0.41,0.05 0.2,0.03 0.37,0.04 0.5,0.04 0.26,0 0.49,-0.01 0.68,-0.03 0.19,-0.03 0.31,-0.04 0.34,-0.04 0.21,0 0.35,0.06 0.42,0.18 0.07,0.11 0.1,0.27 0.1,0.48 0,0.38 0,0.68 0.01,0.9 0,0.23 0.01,0.44 0.01,0.61l0 8.17zm5.42 -4.3c0.95,0 1.77,0.32 2.48,0.97 0.7,0.65 1.05,1.4 1.05,2.25 0,0.95 -0.33,1.72 -1,2.32 -0.68,0.59 -1.58,0.89 -2.7,0.89 -0.89,0 -1.7,-0.3 -2.4,-0.91 -0.71,-0.61 -1.07,-1.37 -1.07,-2.27 0,-0.87 0.31,-1.62 0.94,-2.28 0.62,-0.65 1.52,-0.97 2.7,-0.97zm0.01 5.68c0.66,0 1.18,-0.23 1.57,-0.71 0.39,-0.47 0.59,-1.07 0.59,-1.79 0,-0.71 -0.21,-1.29 -0.63,-1.75 -0.42,-0.45 -0.95,-0.68 -1.6,-0.68 -0.66,0 -1.18,0.22 -1.54,0.67 -0.37,0.45 -0.55,1.02 -0.55,1.73 0,0.78 0.2,1.39 0.61,1.85 0.4,0.45 0.92,0.68 1.55,0.68zm5.59 -4.34c0,0.13 0.06,0.27 0.18,0.4 0.12,0.14 0.51,0.38 1.18,0.73 0.66,0.34 1.1,0.68 1.33,1.02 0.23,0.33 0.35,0.68 0.35,1.05 0,0.58 -0.24,1.04 -0.72,1.38 -0.48,0.34 -1.1,0.51 -1.87,0.51 -0.42,0 -0.84,-0.09 -1.26,-0.28 -0.42,-0.18 -0.63,-0.37 -0.63,-0.56 0,-0.15 -0.01,-0.34 -0.03,-0.57 -0.02,-0.22 -0.04,-0.41 -0.04,-0.54 0,-0.29 0.13,-0.43 0.4,-0.43 0.07,0 0.14,0.04 0.21,0.1 0.06,0.06 0.16,0.27 0.3,0.62 0.13,0.36 0.3,0.6 0.49,0.73 0.2,0.13 0.42,0.2 0.66,0.2 0.3,0 0.55,-0.1 0.76,-0.3 0.21,-0.2 0.31,-0.45 0.31,-0.77 0,-0.2 -0.07,-0.39 -0.21,-0.57 -0.14,-0.18 -0.53,-0.42 -1.16,-0.72 -0.64,-0.3 -1.05,-0.59 -1.24,-0.88 -0.19,-0.29 -0.29,-0.6 -0.29,-0.93 0,-0.44 0.21,-0.82 0.62,-1.12 0.41,-0.3 0.89,-0.45 1.44,-0.45 0.45,0 0.9,0.08 1.33,0.24 0.44,0.16 0.65,0.33 0.65,0.51 0,0.11 0.01,0.25 0.04,0.41 0.02,0.16 0.03,0.28 0.03,0.38 0,0.12 -0.03,0.23 -0.09,0.32 -0.06,0.09 -0.14,0.14 -0.23,0.14 -0.13,0 -0.22,-0.04 -0.28,-0.1 -0.05,-0.07 -0.1,-0.19 -0.15,-0.36 -0.04,-0.17 -0.12,-0.3 -0.22,-0.4 -0.1,-0.09 -0.24,-0.18 -0.41,-0.26 -0.17,-0.09 -0.36,-0.13 -0.57,-0.13 -0.21,0 -0.41,0.07 -0.6,0.21 -0.19,0.13 -0.28,0.27 -0.28,0.42z"/>
   <path class="fil1 str0" d="M115.25 38.62l198.41 0c0.19,0 0.35,0.13 0.35,0.29l0 0c0,0.16 -0.16,0.29 -0.35,0.29l-198.41 0c-0.19,0 -0.35,-0.13 -0.35,-0.29l0 0c0,-0.16 0.16,-0.29 0.35,-0.29z"/>
   <path class="fil1 str0" d="M115.25 65.95l198.41 0c0.19,0 0.35,0.13 0.35,0.29l0 0c0,0.16 -0.16,0.29 -0.35,0.29l-198.41 0c-0.19,0 -0.35,-0.13 -0.35,-0.29l0 0c0,-0.16 0.16,-0.29 0.35,-0.29z"/>
  </g>
 </g>
</svg>
